<svg width="25" height="25" viewBox="0 0 25 25" fill="none" xmlns="http://www.w3.org/2000/svg">
<rect width="25" height="25" rx="2" fill="white" fill-opacity="0.98"/>
<g clip-path="url(#clip0)">
<path d="M5.9375 6.02068C4.75875 7.24506 5 8.54568 5 12.4969C5 15.7782 4.4275 19.0676 7.42375 19.8419C8.35938 20.0826 16.6494 20.0826 17.5838 19.8407C18.8313 19.5188 19.8463 18.5069 19.985 16.7426C20.0044 16.4963 20.0044 8.50193 19.9844 8.25068C19.8369 6.37131 18.68 5.28818 17.1556 5.06881C16.8063 5.01818 16.7363 5.00318 14.9438 5.00006C8.58563 5.00318 7.19188 4.72006 5.9375 6.02068Z" fill="#32CB95"/>
<path d="M12.4988 6.96189C10.2294 6.96189 8.07438 6.76001 7.25126 8.87251C6.91126 9.74501 6.96063 10.8781 6.96063 12.5006C6.96063 13.9244 6.91501 15.2625 7.25126 16.1281C8.07251 18.2419 10.245 18.0394 12.4975 18.0394C14.6706 18.0394 16.9113 18.2656 17.7444 16.1281C18.085 15.2469 18.035 14.1306 18.035 12.5006C18.035 10.3369 18.1544 8.94001 17.105 7.89126C16.0425 6.82876 14.6056 6.96189 12.4963 6.96189H12.4988ZM12.0025 7.96001C16.7363 7.95251 17.3388 7.42626 17.0063 14.7369C16.8881 17.3225 14.9194 17.0388 12.4994 17.0388C8.08688 17.0388 7.96001 16.9125 7.96001 12.4981C7.96001 8.03251 8.31001 7.96251 12.0025 7.95876V7.96001ZM15.455 8.87939C15.0881 8.87939 14.7906 9.17689 14.7906 9.54376C14.7906 9.91064 15.0881 10.2081 15.455 10.2081C15.8219 10.2081 16.1194 9.91064 16.1194 9.54376C16.1194 9.17689 15.8219 8.87939 15.455 8.87939ZM12.4988 9.65626C10.9281 9.65626 9.65501 10.93 9.65501 12.5006C9.65501 14.0713 10.9281 15.3444 12.4988 15.3444C14.0694 15.3444 15.3419 14.0713 15.3419 12.5006C15.3419 10.93 14.0694 9.65626 12.4988 9.65626ZM12.4988 10.6544C14.9394 10.6544 14.9425 14.3469 12.4988 14.3469C10.0588 14.3469 10.055 10.6544 12.4988 10.6544Z" fill="white"/>
</g>
<defs>
<clipPath id="clip0">
<rect width="15" height="15" fill="white" transform="translate(5 5)"/>
</clipPath>
</defs>
</svg>
