<svg width="25" height="25" viewBox="0 0 25 25" fill="none" xmlns="http://www.w3.org/2000/svg">
<rect width="25" height="25" rx="2" fill="white" fill-opacity="0.98"/>
<path d="M19.9963 20.0001V19.9995H20V14.4983C20 11.807 19.4206 9.73389 16.2744 9.73389C14.7619 9.73389 13.7469 10.5639 13.3325 11.3508H13.2888V9.98514H10.3056V19.9995H13.4119V15.0408C13.4119 13.7351 13.6594 12.4726 15.2763 12.4726C16.8694 12.4726 16.8931 13.9626 16.8931 15.1245V20.0001H19.9963Z" fill="#32CB95"/>
<path d="M5.2475 9.9856H8.3575V20H5.2475V9.9856Z" fill="#32CB95"/>
<path d="M6.80125 5C5.80687 5 5 5.80687 5 6.80125C5 7.79562 5.80687 8.61937 6.80125 8.61937C7.79562 8.61937 8.6025 7.79562 8.6025 6.80125C8.60188 5.80687 7.795 5 6.80125 5V5Z" fill="#32CB95"/>
</svg>
