<svg width="85" height="95" viewBox="0 0 85 95" fill="none" xmlns="http://www.w3.org/2000/svg">
<path d="M53.7034 25.4929H3.98437C3.60272 25.4929 3.2367 25.6597 2.96683 25.9566C2.69696 26.2535 2.54535 26.6562 2.54535 27.0761V67.8904H55.1424V27.0761C55.1424 26.6562 54.9908 26.2535 54.7209 25.9566C54.4511 25.6597 54.085 25.4929 53.7034 25.4929Z" fill="#E1E6E9"/>
<path d="M83.5391 53.4208L71.2453 35.7965C71.0885 35.5717 70.8868 35.3897 70.6558 35.2644C70.4248 35.1391 70.1707 35.0739 69.9132 35.074H55.1451V67.8852H82.2229C82.6648 67.8852 83.0886 67.6921 83.401 67.3483C83.7135 67.0046 83.889 66.5383 83.889 66.0522V54.5423C83.8875 54.1363 83.7645 53.7422 83.5391 53.4208Z" fill="#FE7058"/>
<path d="M79.2399 52.4857L69.3361 38.4172C69.2475 38.2913 69.1339 38.1893 69.0039 38.1191C68.8739 38.049 68.7311 38.0125 68.5864 38.0125H60.607C60.3558 38.0125 60.1149 38.1221 59.9371 38.3173C59.7594 38.5124 59.6592 38.7772 59.6587 39.0536V53.1249C59.6587 53.4016 59.7586 53.667 59.9364 53.8626C60.1143 54.0583 60.3555 54.1682 60.607 54.1682H78.4922C78.6694 54.1679 78.8431 54.1129 78.9933 54.0095C79.1436 53.9061 79.2646 53.7584 79.3424 53.5832C79.4203 53.408 79.4519 53.2123 79.4338 53.0183C79.4157 52.8243 79.3485 52.6398 79.2399 52.4857Z" fill="#3A556A"/>
<path d="M2.54269 61.8168H55.1424V67.8896H2.54269V61.8168Z" fill="#9297AB"/>
<path d="M55.1437 61.8191V67.8904H2.54337V64.8511H52.1621V61.8191H55.1437Z" fill="#707583"/>
<path d="M77.8361 67.8853H59.9994C60.2251 65.4558 61.2621 63.2048 62.9096 61.5681C64.5571 59.9314 66.6979 59.0253 68.9177 59.0253C71.1375 59.0253 73.2783 59.9314 74.9258 61.5681C76.5733 63.2048 77.6103 65.4558 77.8361 67.8853Z" fill="#2F4859"/>
<path d="M68.9151 75.2117C72.1656 75.2117 74.8007 72.3126 74.8007 68.7364C74.8007 65.1602 72.1656 62.2611 68.9151 62.2611C65.6646 62.2611 63.0295 65.1602 63.0295 68.7364C63.0295 72.3126 65.6646 75.2117 68.9151 75.2117Z" fill="#3A556A"/>
<path d="M68.9151 72.1279C70.6175 72.1279 71.9976 70.6095 71.9976 68.7365C71.9976 66.8634 70.6175 65.345 68.9151 65.345C67.2126 65.345 65.8325 66.8634 65.8325 68.7365C65.8325 70.6095 67.2126 72.1279 68.9151 72.1279Z" fill="#E1E6E9"/>
<path d="M33.2091 67.8853H15.3724C15.5981 65.4558 16.6351 63.2048 18.2826 61.5681C19.9301 59.9314 22.071 59.0253 24.2907 59.0253C26.5105 59.0253 28.6513 59.9314 30.2988 61.5681C31.9463 63.2048 32.9833 65.4558 33.2091 67.8853Z" fill="#2F4859"/>
<path d="M24.2881 75.2117C27.5386 75.2117 30.1737 72.3126 30.1737 68.7364C30.1737 65.1602 27.5386 62.2611 24.2881 62.2611C21.0376 62.2611 18.4025 65.1602 18.4025 68.7364C18.4025 72.3126 21.0376 75.2117 24.2881 75.2117Z" fill="#3A556A"/>
<path d="M24.2881 72.1279C25.9905 72.1279 27.3707 70.6095 27.3707 68.7365C27.3707 66.8634 25.9905 65.345 24.2881 65.345C22.5856 65.345 21.2055 66.8634 21.2055 68.7365C21.2055 70.6095 22.5856 72.1279 24.2881 72.1279Z" fill="#E1E6E9"/>
<path d="M55.8065 68.621H1.87863V27.0761C1.87934 26.4622 2.1015 25.8737 2.49633 25.4399C2.89115 25.006 3.42636 24.7623 3.98437 24.7623H53.7034C54.261 24.7631 54.7955 25.0071 55.1897 25.4409C55.584 25.8746 55.8058 26.4627 55.8065 27.0761V68.621ZM3.20742 67.1598H54.4784V27.0761C54.4782 26.8501 54.3965 26.6333 54.2512 26.4735C54.1059 26.3136 53.9089 26.2237 53.7034 26.2235H3.98437C3.7789 26.2237 3.58188 26.3136 3.43659 26.4735C3.29129 26.6333 3.20959 26.8501 3.20941 27.0761L3.20742 67.1598Z" fill="#2F3A5A"/>
<path d="M83.5391 53.4208L71.2453 35.7965C71.0885 35.5717 70.8868 35.3897 70.6558 35.2644C70.4248 35.1391 70.1707 35.0739 69.9132 35.074H55.1451V67.8852H82.2229C82.6648 67.8852 83.0886 67.6921 83.401 67.3483C83.7135 67.0046 83.889 66.5383 83.889 66.0522V54.5423C83.8875 54.1363 83.7645 53.7422 83.5391 53.4208Z" fill="#EF5361"/>
<g opacity="0.5">
<path opacity="0.5" d="M83.891 54.5423V66.0493C83.8907 66.5355 83.715 67.0017 83.4024 67.3456C83.0899 67.6894 82.6662 67.8827 82.2242 67.8831H55.1438V62.4986H79.5281C79.9698 62.497 80.3929 62.3033 80.7052 61.9598C81.0175 61.6162 81.1935 61.1507 81.1949 60.6648V50.0565L83.5391 53.4172C83.7645 53.7402 83.888 54.1352 83.891 54.5423Z" fill="#DA2A47"/>
</g>
<path d="M82.2229 68.6152H54.481V34.3442H69.9132C70.2724 34.3453 70.6267 34.4367 70.949 34.6115C71.2712 34.7862 71.5529 35.0396 71.7726 35.3524L84.0703 52.9759C84.3833 53.4267 84.5534 53.978 84.5544 54.5453V66.0515C84.5537 66.7314 84.3078 67.3833 83.8707 67.8639C83.4336 68.3446 82.8409 68.6148 82.2229 68.6152ZM55.8091 67.154H82.2229C82.4886 67.1536 82.7432 67.0373 82.9311 66.8306C83.1189 66.624 83.2246 66.3438 83.225 66.0515V54.5423C83.2246 54.2965 83.1508 54.0575 83.0151 53.8622L70.7187 36.2415C70.6238 36.1058 70.5019 35.9958 70.3624 35.9198C70.2229 35.8438 70.0695 35.804 69.9138 35.8032H55.8091V67.154Z" fill="#2F3A5A"/>
<path d="M78.4922 54.1696H60.609C60.4466 54.1698 60.2869 54.1243 60.1451 54.0373C60.0033 53.9503 59.8841 53.8249 59.7988 53.6728C59.708 53.5075 59.6598 53.3181 59.6594 53.1249V39.0535C59.6608 38.7776 59.7615 38.5135 59.9395 38.3191C60.1174 38.1246 60.3582 38.0157 60.609 38.0161H68.5844C68.717 38.0147 68.8483 38.0446 68.9695 38.1037C69.1141 38.1716 69.24 38.2799 69.3348 38.4179L70.5765 40.1786L71.4664 41.4426L72.2168 42.5093L79.2426 52.4893C79.3499 52.6438 79.416 52.8283 79.4333 53.0219C79.4506 53.2155 79.4185 53.4106 79.3405 53.5852C79.2625 53.7598 79.1418 53.907 78.9919 54.0103C78.8421 54.1135 78.669 54.1687 78.4922 54.1696Z" fill="#B9DDFC"/>
<path d="M55.8065 68.6211H1.87863V61.0871H55.8065V68.6211ZM3.20742 67.1599H54.4784V62.5483H3.20676L3.20742 67.1599Z" fill="#2F3A5A"/>
<path d="M77.8361 67.8853H59.9994C60.2251 65.4558 61.2621 63.2048 62.9096 61.5681C64.5571 59.9314 66.6979 59.0253 68.9177 59.0253C71.1375 59.0253 73.2783 59.9314 74.9258 61.5681C76.5733 63.2048 77.6103 65.4558 77.8361 67.8853Z" fill="#9297AB"/>
<path d="M78.5719 68.6152H59.2629L59.3386 67.8115C59.5808 65.2018 60.6946 62.7837 62.4641 61.0255C64.2337 59.2672 66.5333 58.2939 68.9177 58.2939C71.3022 58.2939 73.6018 59.2672 75.3713 61.0255C77.1409 62.7837 78.2546 65.2018 78.4968 67.8115L78.5719 68.6152ZM60.767 67.154H77.0671C76.6944 65.0773 75.6781 63.2074 74.1917 61.8635C72.7053 60.5195 70.841 59.7848 68.9171 59.7848C66.9931 59.7848 65.1288 60.5195 63.6425 61.8635C62.1561 63.2074 61.1398 65.0773 60.767 67.154Z" fill="#2F3A5A"/>
<path d="M68.9151 75.2117C72.1656 75.2117 74.8007 72.3126 74.8007 68.7364C74.8007 65.1602 72.1656 62.2611 68.9151 62.2611C65.6646 62.2611 63.0295 65.1602 63.0295 68.7364C63.0295 72.3126 65.6646 75.2117 68.9151 75.2117Z" fill="#9297AB"/>
<path d="M68.9151 75.9423C67.6197 75.9423 66.3534 75.5197 65.2763 74.7279C64.1992 73.9361 63.3597 72.8107 62.864 71.494C62.3683 70.1773 62.2385 68.7284 62.4913 67.3306C62.744 65.9328 63.3678 64.6488 64.2838 63.6411C65.1998 62.6333 66.3668 61.947 67.6373 61.669C68.9078 61.3909 70.2247 61.5336 71.4215 62.079C72.6183 62.6244 73.6412 63.548 74.3609 64.733C75.0806 65.918 75.4647 67.3112 75.4647 68.7364C75.4628 70.6469 74.7721 72.4785 73.5442 73.8294C72.3164 75.1803 70.6516 75.9402 68.9151 75.9423ZM68.9151 62.9917C67.8824 62.9917 66.8728 63.3286 66.0142 63.9599C65.1555 64.5911 64.4862 65.4883 64.091 66.538C63.6958 67.5877 63.5924 68.7428 63.7939 69.8572C63.9954 70.9715 64.4927 71.9951 65.2229 72.7986C65.9531 73.602 66.8835 74.1491 67.8964 74.3708C68.9093 74.5924 69.9592 74.4787 70.9133 74.0439C71.8674 73.6091 72.6829 72.8727 73.2566 71.928C73.8304 70.9833 74.1366 69.8726 74.1366 68.7364C74.1348 67.2135 73.5841 65.7535 72.6053 64.6767C71.6264 63.5999 70.2993 62.9942 68.9151 62.9925V62.9917Z" fill="#2F3A5A"/>
<path d="M68.9151 72.1279C70.6175 72.1279 71.9976 70.6095 71.9976 68.7365C71.9976 66.8634 70.6175 65.345 68.9151 65.345C67.2126 65.345 65.8325 66.8634 65.8325 68.7365C65.8325 70.6095 67.2126 72.1279 68.9151 72.1279Z" fill="#F0F5F9"/>
<path d="M68.9151 72.8585C68.1741 72.8585 67.4497 72.6167 66.8335 72.1638C66.2174 71.7109 65.7372 71.0671 65.4536 70.3139C65.1701 69.5607 65.0959 68.7319 65.2404 67.9323C65.385 67.1327 65.7418 66.3982 66.2658 65.8217C66.7898 65.2452 67.4574 64.8526 68.1841 64.6936C68.9109 64.5345 69.6642 64.6162 70.3488 64.9282C71.0335 65.2401 71.6186 65.7685 72.0303 66.4463C72.442 67.1242 72.6617 67.9212 72.6617 68.7364C72.6607 69.8293 72.2656 70.8771 71.5632 71.6499C70.8608 72.4227 69.9084 72.8573 68.9151 72.8585ZM68.9151 66.0763C68.4367 66.0763 67.9691 66.2324 67.5714 66.5247C67.1737 66.8171 66.8637 67.2327 66.6807 67.7189C66.4976 68.2051 66.4497 68.7401 66.543 69.2563C66.6363 69.7724 66.8667 70.2465 67.2049 70.6187C67.5432 70.9908 67.9741 71.2442 68.4432 71.3469C68.9124 71.4495 69.3987 71.3969 69.8406 71.1955C70.2825 70.9941 70.6602 70.653 70.926 70.2154C71.1917 69.7779 71.3336 69.2634 71.3336 68.7372C71.3329 68.0317 71.0778 67.3554 70.6244 66.8565C70.171 66.3577 69.5563 66.0771 68.9151 66.0763Z" fill="#2F3A5A"/>
<path d="M33.2091 67.8853H15.3724C15.5981 65.4558 16.6351 63.2048 18.2826 61.5681C19.9301 59.9314 22.071 59.0253 24.2907 59.0253C26.5105 59.0253 28.6513 59.9314 30.2988 61.5681C31.9463 63.2048 32.9833 65.4558 33.2091 67.8853Z" fill="#84879C"/>
<path d="M33.9455 68.6152H14.6366L14.7123 67.8115C14.9545 65.2018 16.0682 62.7837 17.8378 61.0255C19.6074 59.2672 21.907 58.2939 24.2914 58.2939C26.6758 58.2939 28.9754 59.2672 30.745 61.0255C32.5146 62.7837 33.6283 65.2018 33.8705 67.8115L33.9455 68.6152ZM16.1407 67.154H32.4408C32.0681 65.0773 31.0517 63.2074 29.5654 61.8635C28.079 60.5195 26.2147 59.7848 24.2907 59.7848C22.3668 59.7848 20.5025 60.5195 19.0161 61.8635C17.5297 63.2074 16.5134 65.0773 16.1407 67.154Z" fill="#2F3A5A"/>
<path d="M24.2881 75.2117C27.5386 75.2117 30.1737 72.3126 30.1737 68.7364C30.1737 65.1602 27.5386 62.2611 24.2881 62.2611C21.0376 62.2611 18.4025 65.1602 18.4025 68.7364C18.4025 72.3126 21.0376 75.2117 24.2881 75.2117Z" fill="#84879C"/>
<path d="M24.2881 75.9423C22.9927 75.9423 21.7264 75.5197 20.6493 74.7279C19.5722 73.9361 18.7327 72.8107 18.237 71.494C17.7413 70.1773 17.6116 68.7284 17.8643 67.3306C18.117 65.9328 18.7408 64.6488 19.6568 63.6411C20.5728 62.6333 21.7398 61.947 23.0103 61.669C24.2808 61.3909 25.5977 61.5336 26.7945 62.079C27.9913 62.6244 29.0142 63.548 29.7339 64.733C30.4536 65.918 30.8377 67.3112 30.8377 68.7364C30.8358 70.6469 30.1451 72.4785 28.9173 73.8294C27.6894 75.1803 26.0246 75.9402 24.2881 75.9423ZM24.2881 62.9917C23.2554 62.9917 22.2458 63.3286 21.3872 63.9599C20.5285 64.5911 19.8592 65.4883 19.464 66.538C19.0688 67.5877 18.9654 68.7428 19.1669 69.8572C19.3684 70.9715 19.8657 71.9951 20.5959 72.7986C21.3262 73.602 22.2565 74.1491 23.2694 74.3708C24.2823 74.5924 25.3322 74.4787 26.2863 74.0439C27.2404 73.6091 28.0559 72.8727 28.6296 71.928C29.2034 70.9833 29.5096 69.8726 29.5096 68.7364C29.5079 67.2135 28.9571 65.7535 27.9783 64.6767C26.9994 63.5999 25.6723 62.9942 24.2881 62.9925V62.9917Z" fill="#2F3A5A"/>
<path d="M24.2881 72.1279C25.9905 72.1279 27.3707 70.6095 27.3707 68.7365C27.3707 66.8634 25.9905 65.345 24.2881 65.345C22.5856 65.345 21.2055 66.8634 21.2055 68.7365C21.2055 70.6095 22.5856 72.1279 24.2881 72.1279Z" fill="#F0F5F9"/>
<path d="M24.2881 72.8585C23.5471 72.8585 22.8227 72.6167 22.2066 72.1638C21.5904 71.7109 21.1102 71.0671 20.8266 70.3139C20.5431 69.5607 20.4689 68.7319 20.6134 67.9323C20.758 67.1327 21.1148 66.3982 21.6388 65.8217C22.1628 65.2452 22.8304 64.8526 23.5571 64.6936C24.2839 64.5345 25.0373 64.6162 25.7219 64.9282C26.4065 65.2401 26.9916 65.7685 27.4033 66.4463C27.815 67.1242 28.0347 67.9212 28.0347 68.7364C28.0337 69.8293 27.6386 70.8771 26.9362 71.6499C26.2338 72.4227 25.2814 72.8573 24.2881 72.8585ZM24.2881 66.0763C23.8097 66.0763 23.3422 66.2324 22.9444 66.5247C22.5467 66.8171 22.2367 67.2327 22.0537 67.7189C21.8706 68.2051 21.8227 68.7401 21.916 69.2563C22.0094 69.7724 22.2397 70.2465 22.5779 70.6187C22.9162 70.9908 23.3471 71.2442 23.8163 71.3469C24.2854 71.4495 24.7717 71.3969 25.2136 71.1955C25.6555 70.9941 26.0333 70.653 26.299 70.2154C26.5648 69.7779 26.7066 69.2634 26.7066 68.7372C26.7059 68.0317 26.4509 67.3554 25.9975 66.8565C25.544 66.3577 24.9293 66.0771 24.2881 66.0763Z" fill="#2F3A5A"/>
<path d="M70.5766 40.1787L62.3355 54.1697H60.609C60.4466 54.1698 60.2869 54.1243 60.1451 54.0373C60.0033 53.9503 59.8841 53.8249 59.7988 53.6729L68.9695 38.1038C69.1141 38.1716 69.2401 38.2799 69.3348 38.4179L70.5766 40.1787Z" fill="#F0F5F9"/>
<path d="M72.2168 42.5093L65.3437 54.1697H63.9625L71.4664 41.4426L72.2168 42.5093Z" fill="#F0F5F9"/>
<path d="M78.4922 54.8981H60.607C60.1795 54.8977 59.7696 54.7107 59.4673 54.3781C59.165 54.0455 58.995 53.5945 58.9946 53.1242V39.0536C58.9952 38.5833 59.1652 38.1324 59.4675 37.7999C59.7697 37.4673 60.1795 37.2802 60.607 37.2797H68.587C68.8329 37.2806 69.0753 37.343 69.2961 37.4621C69.5168 37.5812 69.7101 37.7539 69.8614 37.9672L79.7645 52.0356C79.9492 52.2979 80.0633 52.6119 80.0939 52.9419C80.1246 53.272 80.0704 53.6048 79.9377 53.9028C79.805 54.2007 79.599 54.4516 79.3431 54.6272C79.0872 54.8028 78.7917 54.8958 78.4902 54.8959L78.4922 54.8981ZM60.607 38.7438C60.5316 38.7438 60.4593 38.7767 60.406 38.8354C60.3527 38.894 60.3228 38.9735 60.3228 39.0565V53.1249C60.3228 53.2079 60.3527 53.2874 60.406 53.346C60.4593 53.4047 60.5316 53.4376 60.607 53.4376H78.4922C78.5453 53.4376 78.5974 53.4211 78.6424 53.3902C78.6875 53.3592 78.7238 53.315 78.7471 53.2625C78.7705 53.21 78.78 53.1513 78.7746 53.0932C78.7692 53.035 78.7492 52.9797 78.7166 52.9335L68.8115 38.8651C68.7848 38.8275 68.7508 38.797 68.7119 38.776C68.673 38.755 68.6303 38.744 68.587 38.7438H60.607Z" fill="#2F3A5A"/>
<path d="M23.2508 29.6844L24.5079 29.0583C25.7454 29.9242 27.1817 30.3842 28.6483 30.3842C30.115 30.3842 31.5512 29.9242 32.7888 29.0583L34.0704 29.4477L32.5543 33.8751L26.7704 34.5889L23.2508 29.6844Z" fill="#D5D6DB"/>
<path d="M26.7703 35.3188C26.67 35.3188 26.571 35.2939 26.4807 35.2458C26.3905 35.1977 26.3112 35.1277 26.2491 35.0412L22.7295 30.1374C22.667 30.0503 22.6233 29.9488 22.6018 29.8404C22.5802 29.732 22.5814 29.6197 22.6052 29.5118C22.629 29.404 22.6749 29.3036 22.7392 29.2182C22.8035 29.1328 22.8847 29.0646 22.9766 29.0188L24.2336 28.3927C24.3319 28.3439 24.4394 28.3221 24.547 28.3292C24.6546 28.3363 24.759 28.3722 24.8512 28.4336C25.9844 29.2321 27.3019 29.6565 28.6476 29.6565C29.9934 29.6565 31.3109 29.2321 32.4441 28.4336C32.5215 28.382 32.6076 28.3482 32.6973 28.3345C32.7869 28.3209 32.8781 28.3275 32.9654 28.354L34.2477 28.7434C34.3366 28.7705 34.4193 28.8176 34.4907 28.8818C34.5621 28.9461 34.6206 29.0259 34.6624 29.1164C34.7042 29.2069 34.7284 29.3059 34.7335 29.4072C34.7386 29.5085 34.7244 29.6099 34.6919 29.7049L33.1759 34.1323C33.1327 34.2582 33.0588 34.3686 32.9622 34.4512C32.8657 34.5339 32.7503 34.5856 32.6287 34.6006L26.8447 35.3144C26.82 35.3175 26.7952 35.3189 26.7703 35.3188ZM24.298 29.9642L27.0632 33.8167L32.0769 33.1979L33.1931 29.9379L32.883 29.8437C31.6081 30.6647 30.1586 31.1003 28.6814 31.1063C27.2042 31.1123 25.7518 30.6886 24.4714 29.878L24.298 29.9642Z" fill="#2F3A5A"/>
<path d="M44.6914 37.3001L40.5018 42.3639L37.8343 40.026V55.2393H19.7718V40.026L17.1043 42.3639L13.0594 37.1109L20.3462 29.2511C20.388 29.1922 20.4412 29.1443 20.502 29.1109C20.5628 29.0775 20.6296 29.0595 20.6975 29.0582H24.5079C24.5152 29.1231 24.5256 29.1875 24.5391 29.2511C25.1965 31.7088 26.8487 33.7348 29.3582 33.3374C30.3014 33.1775 31.1655 32.6643 31.8046 31.8845C32.4436 31.1047 32.8185 30.1062 32.8658 29.0575H36.8966C36.9661 29.0584 37.0344 29.0761 37.0969 29.1094C37.1593 29.1428 37.2143 29.1909 37.2579 29.2504L44.6914 37.3001Z" fill="#FFC943"/>
<path d="M37.8343 53.022V55.2379H19.7691V40.0246L17.1009 42.3647L13.0568 37.1124L14.8225 35.207L18.6263 40.1495L20.5554 37.5858L20.7506 53.022H37.8343Z" fill="#F7B521"/>
<path d="M37.833 55.9699H19.7705C19.5943 55.9699 19.4254 55.893 19.3009 55.756C19.1764 55.6189 19.1064 55.4331 19.1064 55.2393V41.5428L17.5166 42.9375C17.3816 43.0561 17.2099 43.1122 17.0379 43.0938C16.8659 43.0753 16.7073 42.9839 16.5956 42.8389L12.5508 37.5859C12.4422 37.445 12.3862 37.2641 12.394 37.0796C12.4017 36.8952 12.4727 36.7207 12.5926 36.5915L19.8595 28.7522C19.9633 28.6193 20.0918 28.5125 20.2364 28.439C20.381 28.3655 20.5382 28.327 20.6975 28.3262H24.5079C24.6638 28.3263 24.8147 28.3868 24.9342 28.497C25.0536 28.6072 25.134 28.7601 25.1613 28.929C25.1613 28.9377 25.1733 29.0101 25.1746 29.0196C25.4303 29.9935 26.4729 33.0583 29.2632 32.6134C30.0462 32.478 30.7639 32.0532 31.2981 31.409C31.8322 30.7647 32.151 29.9395 32.2017 29.0693C32.2002 28.9723 32.2163 28.8759 32.249 28.7858C32.2817 28.6958 32.3304 28.6138 32.3922 28.5446C32.454 28.4754 32.5277 28.4205 32.609 28.383C32.6903 28.3455 32.7776 28.3262 32.8658 28.3262H36.8967C37.0631 28.3273 37.2272 28.3685 37.3775 28.447C37.5279 28.5256 37.6607 28.6395 37.7666 28.7807L45.1563 36.7822C45.2786 36.9147 45.3496 37.0941 45.3543 37.2829C45.359 37.4717 45.2971 37.6552 45.1815 37.7948L40.9919 42.8586C40.8784 42.9957 40.7216 43.0802 40.5535 43.0948C40.3855 43.1095 40.2186 43.0532 40.0868 42.9375L38.497 41.5428V55.2393C38.497 55.4331 38.4271 55.6189 38.3025 55.756C38.178 55.893 38.0091 55.9699 37.833 55.9699ZM20.4345 54.5087H37.1689V40.0253C37.1688 39.8877 37.2041 39.7529 37.2706 39.6364C37.3371 39.5198 37.4322 39.4263 37.5449 39.3666C37.6576 39.307 37.7833 39.2835 37.9076 39.2989C38.0318 39.3144 38.1496 39.3681 38.2474 39.454L40.4288 41.3682L43.7697 37.3301L36.8077 29.7889H33.4794C33.2827 30.8669 32.792 31.8533 32.0726 32.6165C31.3533 33.3798 30.4395 33.8836 29.4532 34.0607C26.9862 34.4545 24.9176 32.8187 23.9966 29.7889H20.7958L13.9612 37.1599L17.1899 41.3528L19.3534 39.4533C19.4512 39.3674 19.569 39.3137 19.6932 39.2982C19.8175 39.2827 19.9432 39.3062 20.0559 39.3659C20.1686 39.4256 20.2637 39.5191 20.3302 39.6356C20.3967 39.7522 20.4319 39.887 20.4319 40.0246L20.4345 54.5087Z" fill="#2F3A5A"/>
<path d="M19.9617 39.2815C20.0075 39.1442 20.048 39.0054 20.0872 38.8673L18.6263 40.1487L14.8225 35.2062L13.0568 37.1109L17.1016 42.3639L19.6011 40.1721C19.714 39.877 19.8555 39.5906 19.9617 39.2815Z" fill="#DA2A47"/>
<path d="M43.7086 36.2306L39.4407 41.4339L40.5025 42.3647L44.7087 37.2812L43.7086 36.2306Z" fill="#3A556A"/>
<path d="M40.5019 43.0953C40.3515 43.0952 40.2057 43.0391 40.0881 42.936L39.0256 42.0052C38.9548 41.943 38.8962 41.8656 38.8536 41.7776C38.8109 41.6896 38.7851 41.593 38.7777 41.4936C38.7703 41.3942 38.7815 41.2942 38.8105 41.1998C38.8396 41.1053 38.8859 41.0184 38.9466 40.9444L43.2146 35.741C43.274 35.6684 43.346 35.6097 43.4264 35.5683C43.5069 35.5269 43.594 35.5036 43.6827 35.4999C43.7715 35.4955 43.8602 35.5112 43.9434 35.5458C44.0265 35.5805 44.1023 35.6335 44.1662 35.7016L45.1656 36.7522C45.2916 36.8841 45.3655 37.0652 45.3715 37.2564C45.3774 37.4477 45.315 37.6339 45.1974 37.775L40.9933 42.8527C40.9313 42.9287 40.8556 42.9895 40.7709 43.0313C40.6863 43.073 40.5946 43.0948 40.5019 43.0953ZM40.4069 41.3469L40.4301 41.3667L43.781 37.3169L43.7438 37.2782L40.4069 41.3469Z" fill="#2F3A5A"/>
<path d="M37.2539 29.2519C37.2539 29.2519 35.3587 33.8415 37.8316 40.0253L40.4998 42.3633L44.706 37.2797L37.2539 29.2519Z" fill="#81DAFC"/>
<path d="M40.5018 43.0953C40.3515 43.0953 40.2057 43.0391 40.0881 42.9361L37.4199 40.5981C37.3359 40.5245 37.2693 40.4294 37.226 40.3212C34.6641 33.9102 36.5699 29.1489 36.6523 28.9494C36.6965 28.8426 36.7634 28.749 36.8474 28.6767C36.9315 28.6044 37.0301 28.5554 37.135 28.5339C37.2399 28.5124 37.348 28.519 37.45 28.5532C37.5521 28.5874 37.6452 28.6481 37.7214 28.7303L45.1728 36.7596C45.2958 36.8919 45.3672 37.0716 45.3722 37.2607C45.3771 37.4498 45.3152 37.6337 45.1994 37.7736L40.9932 42.8528C40.9313 42.9287 40.8555 42.9895 40.7709 43.0313C40.6862 43.0731 40.5946 43.0949 40.5018 43.0953ZM38.3768 39.5673L40.4294 41.3667L43.7856 37.3104L37.5594 30.6013C36.9363 33.6074 37.2236 36.7552 38.3775 39.5651L38.3768 39.5673Z" fill="#2F3A5A"/>
<path d="M20.4286 29.1635C20.4286 29.1635 22.2395 33.8394 19.7645 40.0253L17.0963 42.3633L12.9738 37.1913L20.4286 29.1635Z" fill="#81DAFC"/>
<path d="M14.3809 36.9729L18.1289 41.4646L17.1003 42.3669L12.9831 37.1935L20.4299 29.1628C20.4299 29.1628 20.5355 29.1898 20.7214 30.3639L14.3809 36.9729Z" fill="#3DBCE9"/>
<path d="M17.0996 43.0953C17.0053 43.0951 16.9121 43.0727 16.8262 43.0298C16.7403 42.9868 16.6637 42.9242 16.6016 42.8462L12.4777 37.6742C12.3657 37.5338 12.3069 37.3515 12.3133 37.1647C12.3197 36.978 12.3909 36.8011 12.5123 36.6704L19.9637 28.6411C20.0409 28.5578 20.1354 28.4966 20.2389 28.4626C20.3425 28.4287 20.4521 28.423 20.5581 28.4462C20.6641 28.4694 20.7633 28.5207 20.8472 28.5956C20.9311 28.6706 20.9971 28.767 21.0395 28.8763C21.1179 29.0794 22.9341 33.9175 20.3754 40.3183C20.3321 40.4265 20.2656 40.5215 20.1815 40.5952L17.5133 42.9331C17.3961 43.0372 17.2502 43.0944 17.0996 43.0953ZM13.8909 37.2315L17.1806 41.3594L19.2233 39.565C20.378 36.7318 20.6874 33.5691 20.1072 30.5304L13.8909 37.2315Z" fill="#2F3A5A"/>
</svg>
