<svg width="50" height="50" viewBox="0 0 50 50" fill="none" xmlns="http://www.w3.org/2000/svg">
<g clip-path="url(#clip0)">
<path d="M17.0676 3.99297L17.5809 0.390625C22.527 2.70703 27.473 2.70703 32.4191 0.390625L35.1055 4.82891L23.8766 13.7352L17.0676 3.99297Z" fill="#DA2A47"/>
<path d="M23.8766 14.1273C23.8576 14.1273 23.8387 14.1259 23.8199 14.123C23.7672 14.1153 23.7166 14.0969 23.6712 14.0689C23.6259 14.0409 23.5868 14.0039 23.5563 13.9602L16.7473 4.21641C16.6904 4.13527 16.6666 4.03558 16.6805 3.9375L17.1941 0.335547C17.2027 0.275088 17.2254 0.217485 17.2603 0.167362C17.2952 0.11724 17.3413 0.0759943 17.395 0.0469363C17.4487 0.0178782 17.5085 0.00181735 17.5695 4.28975e-05C17.6306 -0.00173156 17.6912 0.0108299 17.7465 0.0367188C20.0028 1.14892 22.4847 1.72737 25.0002 1.72737C27.5157 1.72737 29.9976 1.14892 32.2539 0.0367188C32.3412 -0.00410089 32.4405 -0.0112047 32.5328 0.0167732C32.625 0.0447511 32.7036 0.105835 32.7535 0.188281L35.4398 4.62656C35.4889 4.70785 35.5067 4.80424 35.4899 4.89771C35.4731 4.99117 35.4228 5.07531 35.3484 5.13438L24.1195 14.0406C24.0507 14.0962 23.965 14.1268 23.8766 14.1273ZM17.4758 3.89531L23.9602 13.1727L34.5945 4.73516L32.2656 0.890625C30.0193 1.94639 27.5697 2.49965 25.0877 2.51186C22.6056 2.52407 20.1508 1.99494 17.8941 0.961328L17.4758 3.89531Z" fill="#2F3A5A"/>
<path d="M45.2387 43.2031C45.2387 43.2031 43.759 44.4695 40.6433 45.9531C40.034 46.2448 39.3609 46.5408 38.6242 46.841C37.8844 47.1371 37.0836 47.4371 36.2176 47.7289C35.1644 48.0857 34.0999 48.3902 33.0238 48.6426C32.6453 48.734 32.2625 48.8168 31.8836 48.8906C29.9284 49.2909 27.9427 49.5238 25.948 49.5867C25.3301 49.6086 24.7078 49.6129 24.0855 49.5953C22.0767 49.5616 20.0747 49.3524 18.1023 48.9703C17.7195 48.8965 17.3363 48.8141 16.9578 48.7266C15.0385 48.2894 13.1616 47.6837 11.3488 46.9164C10.6657 46.6336 9.99126 46.3232 9.32538 45.9852C8.82069 45.7371 8.3203 45.4719 7.82421 45.1934C6.75535 44.6071 5.73144 43.9424 4.76093 43.2047L16.2109 21.6797C16.3903 21.2733 16.5485 20.8579 16.6851 20.4352C16.6894 20.4176 16.698 20.3961 16.7027 20.3785C16.8622 19.8922 16.9914 19.3964 17.0898 18.8941C17.645 16.0883 17.3386 13.1801 16.2109 10.5516L13.8601 12.3008L9.59999 6.8875L17.5808 0.390625L25 8.53672L32.4191 0.390625L40.4 6.8875L36.1008 11.8918L33.7891 10.5516C32.6615 13.1799 32.3552 16.0878 32.9101 18.8934C33.0086 19.3956 33.1379 19.8914 33.2973 20.3777C33.3015 20.3953 33.3101 20.4168 33.3148 20.4344C33.4514 20.8574 33.6097 21.273 33.7891 21.6797L45.2387 43.2031Z" fill="#EF5361"/>
<path d="M33.7762 19.4718L33.7719 19.4566C33.7224 19.2908 33.6198 19.1459 33.48 19.0441C33.3401 18.9423 33.1706 18.8893 32.9976 18.8933H17.0023C16.8293 18.8892 16.6598 18.9422 16.5198 19.044C16.3798 19.1457 16.2772 19.2907 16.2277 19.4566L16.2238 19.4722C16.1948 19.5882 16.1931 19.7094 16.2187 19.8262C16.2444 19.943 16.2968 20.0523 16.3718 20.1454C16.4469 20.2386 16.5424 20.3131 16.6511 20.363C16.7597 20.413 16.8785 20.4372 16.9981 20.4335H33.0019C33.1215 20.4371 33.2403 20.4129 33.3489 20.3629C33.4576 20.3128 33.5531 20.2383 33.6282 20.1451C33.7032 20.052 33.7556 19.9427 33.7812 19.8259C33.8069 19.709 33.8052 19.5878 33.7762 19.4718Z" fill="#D9E2E9"/>
<path d="M19.3473 24.375L11.3492 46.9141C10.6661 46.6312 9.99166 46.3208 9.32578 45.9828L9.3996 45.909L19.3473 24.375Z" fill="#DA2A47"/>
<path d="M40.6438 45.9551C40.0344 46.2467 39.3613 46.5427 38.6246 46.843L30.6527 24.375L40.6004 45.9105L40.6438 45.9551Z" fill="#DA2A47"/>
<path d="M22.0672 24.375L18.1027 48.9707C17.7199 48.8969 17.3367 48.8145 16.9582 48.727L22.0672 24.375Z" fill="#DA2A47"/>
<path d="M33.0242 48.6445C32.6457 48.7359 32.2629 48.8187 31.884 48.8926L27.9328 24.375L33.0242 48.6445Z" fill="#DA2A47"/>
<path d="M25.9484 49.5887C25.3305 49.6105 24.7082 49.6148 24.0859 49.5973L25 25L25.9484 49.5887Z" fill="#DA2A47"/>
<path d="M24.7941 49.9962C18.7849 50.0106 12.8738 48.4735 7.6328 45.5337C6.54471 44.9377 5.50285 44.2609 4.516 43.5091C4.44516 43.4521 4.39642 43.3722 4.37816 43.2831C4.35991 43.194 4.37329 43.1014 4.416 43.0212L15.8648 21.4942C16.0344 21.1036 16.189 20.6989 16.3125 20.3141C16.4751 19.8238 16.6066 19.3237 16.7062 18.8169C17.1984 16.2527 16.9693 13.6023 16.0445 11.1606L14.0914 12.6133C14.0097 12.6741 13.9076 12.7006 13.8067 12.6872C13.7058 12.6738 13.6141 12.6215 13.5512 12.5415L9.29295 7.12858C9.22959 7.04802 9.20043 6.94579 9.21175 6.84392C9.22308 6.74206 9.27399 6.64872 9.3535 6.58405L17.3344 0.0875654C17.4117 0.0244981 17.5102 -0.00659264 17.6097 0.000670963C17.7092 0.00793457 17.8022 0.0530019 17.8695 0.126628L25 7.95632L32.1305 0.127409C32.1978 0.0537832 32.2908 0.00871582 32.3903 0.00145221C32.4898 -0.00581139 32.5883 0.0252794 32.6656 0.0883467L40.6465 6.58522C40.6869 6.61813 40.7204 6.65882 40.7449 6.70488C40.7694 6.75093 40.7844 6.80143 40.7891 6.85338C40.7937 6.90534 40.7879 6.9577 40.772 7.00738C40.7561 7.05706 40.7304 7.10305 40.6965 7.14264L36.3973 12.1458C36.3378 12.215 36.256 12.2612 36.166 12.2764C36.076 12.2916 35.9836 12.2748 35.9047 12.229L33.9754 11.1102C33.0343 13.5651 32.7982 16.2341 33.2937 18.8161C33.3922 19.3218 33.5227 19.8207 33.6844 20.3098C33.8172 20.7211 33.9712 21.1253 34.1457 21.5208L45.5816 43.0208C45.6233 43.0992 45.6371 43.1895 45.6206 43.2767C45.6042 43.364 45.5584 43.443 45.491 43.5008C45.3711 43.6032 42.4902 46.0325 36.3402 48.0997C32.6196 49.3528 28.7201 49.9933 24.7941 49.9962ZM5.26288 43.095C6.14538 43.7351 7.06524 44.3221 8.01756 44.8528C12.2616 47.2115 16.9534 48.6534 21.7896 49.0853C26.6258 49.5172 31.4989 48.9295 36.0937 47.3602C41.1023 45.6762 43.9312 43.713 44.741 43.1001L33.4449 21.8614C33.2548 21.434 33.0874 20.997 32.9433 20.552C32.7718 20.0337 32.6331 19.505 32.5281 18.9692C31.9482 16.0798 32.2662 13.0821 33.4394 10.3786C33.4631 10.3305 33.4964 10.2878 33.5372 10.2531C33.5781 10.2185 33.6257 10.1926 33.677 10.1771C33.7283 10.1616 33.7822 10.1568 33.8354 10.1631C33.8886 10.1693 33.94 10.1864 33.9863 10.2133L36.0176 11.3907L39.8437 6.93678L32.4609 0.926628L25.2887 8.79928C25.2511 8.83787 25.2062 8.86855 25.1566 8.88949C25.107 8.91043 25.0536 8.92122 24.9998 8.92122C24.9459 8.92122 24.8926 8.91043 24.843 8.88949C24.7934 8.86855 24.7485 8.83787 24.7109 8.79928L17.539 0.926628L10.1449 6.94772L13.9312 11.7606L15.9765 10.2372C16.0225 10.203 16.0754 10.1794 16.1314 10.168C16.1875 10.1566 16.2454 10.1576 16.3011 10.171C16.3567 10.1844 16.4087 10.2099 16.4534 10.2456C16.4981 10.2814 16.5344 10.3265 16.5598 10.3778C17.7332 13.0815 18.0514 16.0794 17.4719 18.9692C17.3664 19.5065 17.2272 20.0366 17.0551 20.5563C16.9144 20.9908 16.7517 21.4177 16.5676 21.8356L5.26288 43.095Z" fill="#2F3A5A"/>
<path d="M33.7762 19.4718L33.7719 19.4566C33.7224 19.2908 33.6198 19.1459 33.48 19.0441C33.3401 18.9423 33.1706 18.8893 32.9976 18.8933H17.0023C16.8293 18.8892 16.6598 18.9422 16.5198 19.044C16.3798 19.1457 16.2772 19.2907 16.2277 19.4566L16.2238 19.4722C16.1948 19.5882 16.1931 19.7094 16.2187 19.8262C16.2444 19.943 16.2968 20.0523 16.3718 20.1454C16.4469 20.2386 16.5424 20.3131 16.6511 20.363C16.7597 20.413 16.8785 20.4372 16.9981 20.4335H33.0019C33.1215 20.4371 33.2403 20.4129 33.3489 20.3629C33.4576 20.3128 33.5531 20.2383 33.6282 20.1451C33.7032 20.052 33.7556 19.9427 33.7812 19.8259C33.8069 19.709 33.8052 19.5878 33.7762 19.4718Z" fill="#D9E2E9"/>
<path d="M33.0019 20.8242H16.998C16.8141 20.8259 16.6323 20.7849 16.4669 20.7045C16.3015 20.6242 16.1569 20.5066 16.0445 20.361C15.9373 20.2225 15.8636 20.061 15.8293 19.8893C15.7951 19.7175 15.801 19.5402 15.8469 19.3711C15.9161 19.1188 16.0672 18.8965 16.2764 18.7393C16.4856 18.5821 16.7411 18.4987 17.0027 18.5024H32.9976C33.2568 18.498 33.5102 18.5792 33.7185 18.7336C33.9268 18.8879 34.0783 19.1066 34.1496 19.3559L33.7762 19.4731L34.1535 19.3723C34.1993 19.5414 34.2053 19.7189 34.1709 19.8907C34.1366 20.0625 34.0628 20.224 33.9555 20.3625C33.843 20.5079 33.6984 20.6253 33.5329 20.7054C33.3675 20.7855 33.1857 20.8262 33.0019 20.8242ZM17.0023 19.284C16.9155 19.2805 16.8298 19.3053 16.7582 19.3546C16.6866 19.4039 16.6329 19.4751 16.6051 19.5574C16.5881 19.6129 16.5846 19.6715 16.5947 19.7286C16.6049 19.7856 16.6286 19.8394 16.6637 19.8856C16.7034 19.9356 16.7542 19.9758 16.8121 20.0029C16.87 20.03 16.9334 20.0433 16.9973 20.0418H33.0019C33.0658 20.0432 33.1292 20.0299 33.187 20.0028C33.2449 19.9756 33.2957 19.9355 33.3355 19.8856C33.3696 19.842 33.3931 19.791 33.404 19.7368C33.4149 19.6825 33.413 19.6265 33.3984 19.5731L33.3953 19.5625C33.3682 19.4791 33.3146 19.4069 33.2427 19.3567C33.1708 19.3065 33.0845 19.2811 32.9969 19.2844L17.0023 19.284Z" fill="#2F3A5A"/>
<path d="M23.2562 13.6074L23.0715 12.65L22.7832 13.7637C22.7331 13.931 22.6398 14.0821 22.5127 14.2019C22.3856 14.3217 22.2293 14.4059 22.0594 14.4461L21.0938 14.6746L22.007 14.859C22.1824 14.8944 22.3449 14.9763 22.4776 15.0963C22.6103 15.2163 22.7081 15.3698 22.7609 15.5406L23.0133 16.6992L23.3098 15.6836C23.3463 15.4901 23.4395 15.3118 23.5774 15.1712C23.7154 15.0307 23.892 14.9343 24.0848 14.8942L25.143 14.6742L24.0336 14.4367C23.8348 14.3944 23.6538 14.2923 23.5148 14.144C23.3759 13.9958 23.2856 13.8085 23.2562 13.6074Z" fill="#F0F5F9"/>
<path d="M20.7371 10.1394L20.6238 9.55347L20.4473 10.2343C20.4165 10.3368 20.3594 10.4293 20.2816 10.5027C20.2037 10.5761 20.108 10.6277 20.0039 10.6523L19.4117 10.7921L19.9711 10.905C20.0785 10.9267 20.178 10.9769 20.2593 11.0504C20.3405 11.1239 20.4005 11.2179 20.4328 11.3226L20.5891 12.0324L20.7707 11.4105C20.7931 11.292 20.8501 11.1827 20.9346 11.0967C21.0191 11.0106 21.1272 10.9515 21.2453 10.9269L21.8934 10.7921L21.2109 10.6476C21.0896 10.6213 20.9792 10.5585 20.8945 10.4677C20.8098 10.3768 20.7549 10.2623 20.7371 10.1394Z" fill="#F0F5F9"/>
</g>
<defs>
<clipPath id="clip0">
<rect width="50" height="50" fill="white"/>
</clipPath>
</defs>
</svg>
