<svg width="60" height="60" viewBox="0 0 60 60" fill="none" xmlns="http://www.w3.org/2000/svg">
<path d="M47.8448 14.6719H52.8577C53.3182 14.6717 53.7738 14.5768 54.1961 14.3932C54.6185 14.2097 54.9987 13.9412 55.313 13.6047C55.6273 13.2681 55.8692 12.8705 56.0235 12.4366C56.1778 12.0027 56.2414 11.5417 56.2101 11.0822C56.1324 10.2192 55.7316 9.41734 55.088 8.83712C54.4444 8.25689 53.6055 7.94107 52.7391 7.95283H47.8448" fill="#81DAFC"/>
<path d="M52.8581 15.1406H47.8448C47.7205 15.1406 47.6013 15.0912 47.5134 15.0033C47.4255 14.9154 47.3761 14.7962 47.3761 14.6719C47.3761 14.5475 47.4255 14.4283 47.5134 14.3404C47.6013 14.2525 47.7205 14.2031 47.8448 14.2031H52.8577C53.254 14.2021 53.646 14.1201 54.0095 13.962C54.373 13.8039 54.7003 13.5731 54.9713 13.2839C55.243 12.9953 55.4519 12.6534 55.5846 12.2799C55.7174 11.9064 55.7711 11.5094 55.7424 11.1141C55.6748 10.3688 55.3276 9.67682 54.7705 9.17728C54.2133 8.67773 53.4877 8.40772 52.7395 8.42155H47.8448C47.7205 8.42155 47.6013 8.37217 47.5134 8.28426C47.4255 8.19635 47.3761 8.07712 47.3761 7.9528C47.3761 7.82848 47.4255 7.70925 47.5134 7.62135C47.6013 7.53344 47.7205 7.48405 47.8448 7.48405H52.7391C53.7247 7.47087 54.6787 7.8314 55.4092 8.49313C56.1397 9.15487 56.5926 10.0687 56.6766 11.0508C56.7144 11.5743 56.6432 12.1 56.4673 12.5945C56.2914 13.0891 56.0147 13.5417 55.6547 13.9237C55.2963 14.3066 54.8632 14.6121 54.3823 14.8214C53.9013 15.0307 53.3826 15.1393 52.8581 15.1406Z" fill="#2F3A5A"/>
<path d="M47.9583 12.577H34.7395C34.602 12.5763 34.4657 12.6031 34.3387 12.6558C34.2116 12.7086 34.0964 12.7862 33.9998 12.8841C33.8527 13.0302 33.7523 13.2169 33.7114 13.4202C33.6706 13.6236 33.6912 13.8345 33.7705 14.0261C33.8499 14.2178 33.9844 14.3815 34.157 14.4965C34.3297 14.6115 34.5326 14.6725 34.74 14.6719H47.9934C48.454 14.6717 48.9096 14.5768 49.3319 14.3932C49.7543 14.2096 50.1344 13.9412 50.4488 13.6047C50.7631 13.2681 51.0049 12.8705 51.1593 12.4366C51.3136 12.0027 51.3771 11.5417 51.3459 11.0822C51.2682 10.2192 50.8674 9.41734 50.2238 8.83711C49.5802 8.25688 48.7413 7.94106 47.8748 7.95283H36.1355C35.6 7.93571 35.0773 8.11805 34.6687 8.46449C34.26 8.81094 33.9946 9.29679 33.9239 9.82783C33.795 11.513 34.7784 12.5803 36.0623 12.5803" fill="#81DAFC"/>
<path d="M47.9934 15.1406H34.7395C34.4398 15.1408 34.1467 15.052 33.8975 14.8855C33.6482 14.719 33.454 14.4823 33.3394 14.2053C33.2247 13.9284 33.1948 13.6236 33.2535 13.3297C33.3122 13.0357 33.4567 12.7658 33.6689 12.5541C33.812 12.4081 33.9839 12.2935 34.1738 12.2175C33.8962 11.8825 33.6895 11.4947 33.5662 11.0775C33.4428 10.6603 33.4054 10.2224 33.4561 9.79033C33.5336 9.14057 33.8517 8.54341 34.3476 8.11653C34.8436 7.68965 35.4814 7.46401 36.1355 7.48408H47.8748C48.8604 7.4709 49.8144 7.83143 50.5449 8.49316C51.2755 9.15489 51.7283 10.0687 51.8123 11.0508C51.8502 11.5743 51.7789 12.1 51.603 12.5946C51.4271 13.0891 51.1504 13.5417 50.7905 13.9238C50.4319 14.3067 49.9988 14.6123 49.5178 14.8215C49.0368 15.0308 48.518 15.1394 47.9934 15.1406ZM34.7395 13.0458C34.6644 13.0451 34.5899 13.0595 34.5204 13.0881C34.4509 13.1166 34.3879 13.1589 34.335 13.2122C34.2531 13.2925 34.197 13.3953 34.1739 13.5076C34.1507 13.6199 34.1615 13.7366 34.2049 13.8427C34.2483 13.9488 34.3223 14.0396 34.4176 14.1035C34.5128 14.1673 34.6249 14.2014 34.7395 14.2013H47.993C48.3893 14.2003 48.7813 14.1182 49.1448 13.9601C49.5083 13.8021 49.8356 13.5713 50.1065 13.282C50.3783 12.9935 50.5872 12.6516 50.7199 12.2781C50.8526 11.9046 50.9064 11.5076 50.8776 11.1122C50.8101 10.367 50.4629 9.67498 49.9057 9.17543C49.3486 8.67589 48.623 8.40587 47.8748 8.41971H36.1355C35.7186 8.40383 35.3104 8.54184 34.9886 8.80747C34.6669 9.07311 34.4541 9.44779 34.3908 9.86017C34.3495 10.1708 34.3727 10.4866 34.4588 10.7879C34.545 11.0892 34.6922 11.3695 34.8914 11.6114C35.0405 11.7724 35.222 11.8999 35.424 11.9856C35.626 12.0712 35.8439 12.113 36.0633 12.1083H47.9592C48.0835 12.1083 48.2028 12.1577 48.2907 12.2456C48.3786 12.3335 48.428 12.4527 48.428 12.577C48.428 12.7014 48.3786 12.8206 48.2907 12.9085C48.2028 12.9964 48.0835 13.0458 47.9592 13.0458H34.7395Z" fill="#2F3A5A"/>
<path d="M47.9583 13.0458C47.834 13.0458 47.7147 12.9965 47.6268 12.9085C47.5389 12.8206 47.4895 12.7014 47.4895 12.5771C47.4895 12.4528 47.5389 12.3335 47.6268 12.2456C47.7147 12.1577 47.834 12.1083 47.9583 12.1083C48.1446 12.1117 48.3265 12.0518 48.4743 11.9384C48.6221 11.825 48.7271 11.6648 48.772 11.484C48.7981 11.3673 48.7976 11.2464 48.7706 11.13C48.7436 11.0135 48.6908 10.9047 48.616 10.8115C48.5412 10.7183 48.4465 10.6431 48.3387 10.5914C48.2309 10.5398 48.1129 10.513 47.9934 10.5132H36.0623C35.938 10.5132 35.8188 10.4638 35.7309 10.3759C35.643 10.288 35.5936 10.1688 35.5936 10.0444C35.5936 9.92011 35.643 9.80089 35.7309 9.71298C35.8188 9.62507 35.938 9.57568 36.0623 9.57568H47.9934C48.2519 9.57556 48.5071 9.63319 48.7404 9.74435C48.9737 9.85552 49.1792 10.0174 49.3418 10.2182C49.5045 10.419 49.6203 10.6536 49.6807 10.9049C49.741 11.1562 49.7445 11.4177 49.6908 11.6705C49.6044 12.0641 49.3849 12.4159 49.0693 12.6665C48.7536 12.917 48.3612 13.051 47.9583 13.0458Z" fill="#2F3A5A"/>
<path d="M47.8448 21.3895H52.8577C53.3182 21.3893 53.7738 21.2944 54.1961 21.1108C54.6185 20.9272 54.9987 20.6588 55.313 20.3223C55.6273 19.9857 55.8692 19.5881 56.0235 19.1542C56.1778 18.7203 56.2414 18.2593 56.2101 17.7998C56.132 16.937 55.7311 16.1355 55.0876 15.5556C54.444 14.9757 53.6053 14.66 52.7391 14.6718H47.8448" fill="#FFC943"/>
<path d="M52.8581 21.8583H47.8448C47.7205 21.8583 47.6013 21.8089 47.5134 21.721C47.4255 21.6331 47.3761 21.5139 47.3761 21.3896C47.3761 21.2653 47.4255 21.146 47.5134 21.0581C47.6013 20.9702 47.7205 20.9208 47.8448 20.9208H52.8577C53.254 20.9198 53.646 20.8378 54.0095 20.6797C54.373 20.5216 54.7003 20.2909 54.9713 20.0016C55.243 19.713 55.4519 19.3712 55.5846 18.9977C55.7174 18.6241 55.7711 18.2271 55.7423 17.8318C55.6748 17.0865 55.3276 16.3945 54.7704 15.895C54.2133 15.3954 53.4877 15.1254 52.7395 15.1393H47.8448C47.7205 15.1393 47.6013 15.0899 47.5134 15.002C47.4255 14.9141 47.3761 14.7948 47.3761 14.6705C47.3761 14.5462 47.4255 14.427 47.5134 14.3391C47.6013 14.2512 47.7205 14.2018 47.8448 14.2018H52.7391C53.7246 14.1886 54.6787 14.5491 55.4092 15.2108C56.1397 15.8726 56.5925 16.7864 56.6766 17.7685C56.7144 18.292 56.6431 18.8177 56.4672 19.3122C56.2913 19.8067 56.0146 20.2594 55.6547 20.6414C55.2962 21.0244 54.8632 21.3298 54.3823 21.5391C53.9013 21.7484 53.3826 21.857 52.8581 21.8583Z" fill="#2F3A5A"/>
<path d="M47.9583 19.296H34.7395C34.602 19.2953 34.4657 19.3221 34.3387 19.3748C34.2116 19.4275 34.0964 19.5052 33.9998 19.6031C33.8532 19.7493 33.7532 19.9357 33.7126 20.1388C33.6721 20.3419 33.6927 20.5524 33.7719 20.7438C33.8512 20.9351 33.9854 21.0986 34.1577 21.2136C34.3299 21.3285 34.5324 21.3897 34.7395 21.3895H47.993C48.4535 21.3893 48.9091 21.2944 49.3314 21.1108C49.7538 20.9272 50.134 20.6588 50.4483 20.3222C50.7626 19.9857 51.0045 19.5881 51.1588 19.1542C51.3131 18.7203 51.3767 18.2593 51.3455 17.7998C51.2677 16.9368 50.8669 16.1349 50.2233 15.5547C49.5797 14.9745 48.7408 14.6586 47.8744 14.6704H36.1355C35.6 14.6533 35.0773 14.8356 34.6686 15.1821C34.26 15.5285 33.9946 16.0144 33.9239 16.5454C33.795 18.2306 34.7784 19.2979 36.0623 19.2979" fill="#FFC943"/>
<path d="M47.9934 21.8582H34.7395C34.4398 21.8584 34.1467 21.7696 33.8975 21.6031C33.6482 21.4366 33.454 21.1999 33.3394 20.9229C33.2247 20.646 33.1948 20.3412 33.2535 20.0473C33.3122 19.7533 33.4567 19.4834 33.6689 19.2717C33.812 19.1257 33.984 19.0111 34.1738 18.9351C33.8962 18.6001 33.6895 18.2122 33.5662 17.7951C33.4428 17.3779 33.4054 16.94 33.4561 16.5079C33.5336 15.8582 33.8517 15.261 34.3476 14.8341C34.8436 14.4072 35.4814 14.1816 36.1355 14.2017H47.8748C48.8604 14.1885 49.8144 14.549 50.545 15.2108C51.2755 15.8725 51.7283 16.7863 51.8123 17.7684C51.8501 18.2919 51.7788 18.8176 51.6029 19.3121C51.427 19.8067 51.1504 20.2593 50.7905 20.6414C50.432 21.0243 49.9989 21.3298 49.5178 21.5391C49.0368 21.7484 48.518 21.857 47.9934 21.8582ZM34.7395 19.7648C34.6644 19.7641 34.5899 19.7785 34.5204 19.8071C34.4509 19.8356 34.3879 19.8779 34.335 19.9312C34.2532 20.0115 34.1972 20.1144 34.174 20.2267C34.1509 20.339 34.1617 20.4556 34.2051 20.5618C34.2485 20.6679 34.3225 20.7587 34.4176 20.8226C34.5128 20.8866 34.6249 20.9207 34.7395 20.9207H47.993C48.3893 20.9197 48.7813 20.8377 49.1448 20.6796C49.5083 20.5215 49.8356 20.2908 50.1066 20.0015C50.3783 19.7129 50.5872 19.3711 50.72 18.9976C50.8527 18.624 50.9064 18.227 50.8777 17.8317C50.8101 17.0864 50.4629 16.3944 49.9058 15.8949C49.3486 15.3954 48.623 15.1253 47.8748 15.1392H36.1355C35.7186 15.1233 35.3104 15.2613 34.9886 15.5269C34.6669 15.7926 34.4541 16.1673 34.3908 16.5796C34.3495 16.8903 34.3727 17.2061 34.4588 17.5074C34.545 17.8087 34.6922 18.089 34.8914 18.3309C35.0405 18.4919 35.222 18.6194 35.424 18.705C35.6261 18.7907 35.8439 18.8325 36.0633 18.8278H47.9592C48.0835 18.8278 48.2028 18.8771 48.2907 18.9651C48.3786 19.053 48.428 19.1722 48.428 19.2965C48.428 19.4208 48.3786 19.5401 48.2907 19.628C48.2028 19.7159 48.0835 19.7653 47.9592 19.7653L34.7395 19.7648Z" fill="#2F3A5A"/>
<path d="M47.9583 19.7648C47.834 19.7648 47.7147 19.7154 47.6268 19.6275C47.5389 19.5396 47.4895 19.4204 47.4895 19.2961C47.4895 19.1718 47.5389 19.0525 47.6268 18.9646C47.7147 18.8767 47.834 18.8273 47.9583 18.8273C48.1446 18.8307 48.3265 18.7708 48.4743 18.6574C48.6221 18.544 48.7271 18.3838 48.772 18.203C48.7981 18.0863 48.7976 17.9654 48.7706 17.8489C48.7436 17.7325 48.6908 17.6237 48.616 17.5305C48.5412 17.4373 48.4465 17.362 48.3387 17.3104C48.2309 17.2588 48.1129 17.232 47.9934 17.2322H36.0623C35.938 17.2322 35.8188 17.1828 35.7309 17.0949C35.643 17.007 35.5936 16.8877 35.5936 16.7634C35.5936 16.6391 35.643 16.5199 35.7309 16.432C35.8188 16.3441 35.938 16.2947 36.0623 16.2947H47.9934C48.2519 16.2946 48.5071 16.3522 48.7404 16.4633C48.9737 16.5745 49.1792 16.7364 49.3418 16.9372C49.5045 17.138 49.6203 17.3726 49.6807 17.6239C49.741 17.8751 49.7445 18.1367 49.6908 18.3895C49.6044 18.7831 49.3849 19.1349 49.0693 19.3854C48.7536 19.636 48.3612 19.77 47.9583 19.7648Z" fill="#2F3A5A"/>
<path d="M42.9309 22.6664L14.5922 55.424C14.5049 55.5177 14.4374 55.628 14.3937 55.7483C14.35 55.8686 14.3309 55.9965 14.3377 56.1244C14.3445 56.2522 14.377 56.3773 14.4333 56.4924C14.4895 56.6074 14.5683 56.7099 14.6651 56.7937C14.7618 56.8776 14.8744 56.9411 14.9962 56.9805C15.118 57.0199 15.2465 57.0343 15.374 57.0229C15.5016 57.0116 15.6255 56.9746 15.7384 56.9143C15.8513 56.854 15.9509 56.7715 16.0313 56.6718L45.4509 22.6664H42.9309Z" fill="#C8CBD2"/>
<path d="M15.3108 57.4687C15.0385 57.4684 14.772 57.3898 14.543 57.2423C14.3141 57.0949 14.1323 56.8848 14.0193 56.6371C13.9063 56.3893 13.8668 56.1143 13.9055 55.8447C13.9443 55.5752 14.0596 55.3224 14.2378 55.1166L42.7167 22.1976H46.4766L16.388 56.9789C16.2663 57.1205 16.1177 57.2366 15.9508 57.3204C15.7839 57.4041 15.6021 57.4539 15.4158 57.4669C15.3806 57.4687 15.345 57.4687 15.3108 57.4687ZM43.1452 23.1342L14.9466 55.7311C14.9049 55.7791 14.8731 55.8349 14.853 55.8953C14.833 55.9556 14.825 56.0193 14.8296 56.0828C14.8341 56.1462 14.8512 56.2081 14.8797 56.265C14.9082 56.3218 14.9477 56.3725 14.9958 56.414C15.0929 56.498 15.2193 56.5401 15.3474 56.5312C15.4108 56.5269 15.4727 56.5099 15.5295 56.4815C15.5863 56.453 15.6369 56.4135 15.6783 56.3653L44.4253 23.1351L43.1452 23.1342Z" fill="#2F3A5A"/>
<path d="M16.2619 52.425L13.8506 55.3421C13.7105 55.5115 13.6052 55.7069 13.5406 55.917C13.476 56.1272 13.4535 56.348 13.4742 56.5668C13.495 56.7857 13.5587 56.9983 13.6616 57.1926C13.7646 57.3868 13.9048 57.5589 14.0742 57.699C14.2437 57.839 14.439 57.9444 14.6492 58.009C14.8593 58.0736 15.0801 58.0961 15.299 58.0753C15.5178 58.0546 15.7305 57.9909 15.9247 57.888C16.119 57.785 16.291 57.6448 16.4311 57.4754L18.8423 54.5583L16.2619 52.425Z" fill="#9297AB"/>
<path d="M15.1406 58.5507C14.7343 58.5506 14.3363 58.4349 13.9932 58.2171C13.6501 57.9994 13.3761 57.6885 13.2031 57.3208C13.0301 56.9531 12.9652 56.5438 13.0161 56.1406C13.0671 55.7374 13.2316 55.3571 13.4906 55.0439L15.9023 52.1269C15.9815 52.0312 16.0954 51.9708 16.2191 51.959C16.3428 51.9472 16.4661 51.985 16.5619 52.0641L19.1428 54.1974C19.1903 54.2366 19.2296 54.2848 19.2584 54.3391C19.2872 54.3935 19.3051 54.4531 19.3109 54.5144C19.3168 54.5757 19.3105 54.6375 19.2924 54.6963C19.2743 54.7552 19.2448 54.8099 19.2056 54.8574L16.7939 57.7744C16.5927 58.0178 16.3401 58.2137 16.0543 58.3479C15.7684 58.4821 15.4564 58.5513 15.1406 58.5507ZM16.3261 53.085L14.2111 55.6407C14.0094 55.8873 13.9137 56.2038 13.9446 56.5209C13.9756 56.838 14.1309 57.13 14.3765 57.333C14.6221 57.5359 14.938 57.6335 15.2553 57.6042C15.5726 57.5749 15.8654 57.4212 16.0697 57.1768L18.1823 54.6211L16.3261 53.085Z" fill="#2F3A5A"/>
<path d="M17.069 22.6664H14.549L43.9687 56.6719C44.0503 56.7677 44.1499 56.8464 44.262 56.9035C44.3741 56.9606 44.4964 56.995 44.6219 57.0046C44.7473 57.0142 44.8734 56.9988 44.9929 56.9594C45.1124 56.9201 45.2229 56.8574 45.318 56.7751C45.4132 56.6928 45.4911 56.5925 45.5473 56.4799C45.6035 56.3673 45.6368 56.2447 45.6453 56.1192C45.6539 55.9937 45.6375 55.8677 45.5972 55.7486C45.5568 55.6294 45.4932 55.5194 45.4101 55.425L17.069 22.6664Z" fill="#C8CBD2"/>
<path d="M44.6892 57.4688C44.6546 57.4688 44.6199 57.4688 44.5847 57.465C44.3984 57.452 44.2165 57.4022 44.0495 57.3185C43.8825 57.2347 43.7339 57.1187 43.6121 56.9771L13.5239 22.1958H17.2838L45.7627 55.1157C45.9409 55.3215 46.0562 55.5743 46.095 55.8438C46.1337 56.1134 46.0942 56.3884 45.9812 56.6362C45.8682 56.8839 45.6864 57.094 45.4575 57.2414C45.2285 57.3889 44.962 57.4675 44.6897 57.4678L44.6892 57.4688ZM15.5747 23.1352L44.3213 56.3644C44.3628 56.4126 44.4135 56.452 44.4704 56.4805C44.5273 56.509 44.5892 56.5259 44.6527 56.5303C44.7807 56.5391 44.907 56.497 45.0042 56.4131C45.0523 56.3716 45.0917 56.3209 45.1202 56.2641C45.1487 56.2073 45.1657 56.1455 45.1702 56.0821C45.1748 56.0187 45.1669 55.9551 45.1468 55.8948C45.1268 55.8344 45.0951 55.7787 45.0535 55.7307L16.8549 23.1352H15.5747Z" fill="#2F3A5A"/>
<path d="M43.7381 52.425L46.1494 55.3421C46.2895 55.5115 46.3948 55.7069 46.4594 55.917C46.524 56.1272 46.5465 56.348 46.5258 56.5668C46.505 56.7857 46.4413 56.9983 46.3384 57.1926C46.2354 57.3868 46.0952 57.5589 45.9258 57.699C45.7564 57.839 45.561 57.9444 45.3508 58.009C45.1407 58.0736 44.9199 58.0961 44.701 58.0753C44.4822 58.0546 44.2695 57.9909 44.0753 57.888C43.881 57.785 43.709 57.6448 43.5689 57.4754L41.1562 54.5583L43.7381 52.425Z" fill="#9297AB"/>
<path d="M44.8594 58.5507C44.5436 58.5513 44.2315 58.4821 43.9457 58.3479C43.6598 58.2137 43.4073 58.0178 43.2061 57.7744L40.7944 54.8574C40.7551 54.8099 40.7257 54.7552 40.7076 54.6963C40.6895 54.6375 40.6832 54.5757 40.6891 54.5144C40.6949 54.4531 40.7127 54.3935 40.7416 54.3391C40.7704 54.2848 40.8097 54.2366 40.8572 54.1974L43.4381 52.0641C43.5339 51.985 43.6572 51.9472 43.7809 51.959C43.9045 51.9708 44.0185 52.0312 44.0976 52.1269L46.5094 55.0439C46.7685 55.3571 46.9332 55.7375 46.9842 56.1407C47.0352 56.5439 46.9704 56.9534 46.7973 57.3211C46.6243 57.6889 46.3502 57.9999 46.007 58.2177C45.6639 58.4355 45.2658 58.5511 44.8594 58.5511V58.5507ZM41.8158 54.6216L43.9284 57.1772C44.1327 57.4217 44.4255 57.5754 44.7428 57.6046C45.0601 57.6339 45.376 57.5364 45.6216 57.3334C45.8672 57.1305 46.0225 56.8385 46.0534 56.5214C46.0844 56.2043 45.9887 55.8878 45.787 55.6411L43.6739 53.0855L41.8158 54.6216Z" fill="#2F3A5A"/>
<path d="M0.470642 21.3895H59.5303V24.6637H0.470642V21.3895Z" fill="#E1B378"/>
<path d="M59.5312 21.3895V24.6623H0.46875V23.2237H57.7463V21.3895H59.5312Z" fill="#BD8D5A"/>
<path d="M59.5312 25.1325H0.46875C0.34443 25.1325 0.225201 25.0831 0.137294 24.9952C0.049386 24.9073 0 24.7881 0 24.6637V21.3895C0 21.2652 0.049386 21.146 0.137294 21.0581C0.225201 20.9702 0.34443 20.9208 0.46875 20.9208H59.5312C59.6556 20.9208 59.7748 20.9702 59.8627 21.0581C59.9506 21.146 60 21.2652 60 21.3895V24.6637C60 24.7881 59.9506 24.9073 59.8627 24.9952C59.7748 25.0831 59.6556 25.1325 59.5312 25.1325ZM0.9375 24.195H59.0625V21.8583H0.9375V24.195Z" fill="#2F3A5A"/>
<path d="M4.67059 19.2211H11.2195V21.3895H4.67059V19.2211Z" fill="#9297AB"/>
<path d="M11.22 21.8583H4.67111C4.54679 21.8583 4.42756 21.8089 4.33966 21.721C4.25175 21.6331 4.20236 21.5139 4.20236 21.3895V19.2188C4.20236 19.0944 4.25175 18.9752 4.33966 18.8873C4.42756 18.7994 4.54679 18.75 4.67111 18.75H11.22C11.3443 18.75 11.4636 18.7994 11.5515 18.8873C11.6394 18.9752 11.6888 19.0944 11.6888 19.2188V21.3872C11.6891 21.4489 11.6772 21.5101 11.6538 21.5673C11.6303 21.6244 11.5959 21.6764 11.5523 21.7202C11.5088 21.7639 11.457 21.7987 11.3999 21.8224C11.3429 21.8461 11.2818 21.8583 11.22 21.8583ZM5.13986 20.9208H10.7513V19.6875H5.13986V20.9208Z" fill="#2F3A5A"/>
<path d="M11.8008 19.5938C12.3788 17.1778 12.328 14.654 11.6531 12.2633C10.9782 9.87259 9.70182 7.69475 7.94578 5.93768C6.18956 7.69466 4.913 9.87245 4.23796 12.2632C3.56291 14.6539 3.51192 17.1777 4.08984 19.5938H11.8008Z" fill="#D9E2E9"/>
<path d="M11.8008 20.0625H4.09032C3.98476 20.0625 3.8823 20.0269 3.79953 19.9614C3.71675 19.8959 3.65851 19.8043 3.63423 19.7016C3.03112 17.2082 3.08047 14.6014 3.77752 12.1326C4.47457 9.66377 5.79582 7.41613 7.61392 5.6063C7.70182 5.51842 7.82103 5.46906 7.94532 5.46906C8.06962 5.46906 8.18883 5.51842 8.27673 5.6063C10.0948 7.41613 11.4161 9.66377 12.1131 12.1326C12.8102 14.6014 12.8595 17.2082 12.2564 19.7016C12.2322 19.8043 12.174 19.8957 12.0913 19.9612C12.0086 20.0267 11.9063 20.0624 11.8008 20.0625ZM4.46579 19.125H11.4253C11.8997 16.9134 11.8309 14.6197 11.2249 12.4404C10.6189 10.2611 9.49375 8.26112 7.94579 6.61177C6.39757 8.26097 5.27218 10.2609 4.66602 12.4402C4.05986 14.6195 3.99099 16.9133 4.46532 19.125H4.46579Z" fill="#2F3A5A"/>
</svg>
