<svg width="75" height="84" viewBox="0 0 75 84" fill="none" xmlns="http://www.w3.org/2000/svg">
<g clip-path="url(#clip0)">
<path d="M44.0754 24.6911H54.8631C59.015 24.6911 62.3631 29.0824 62.0783 34.3459C61.8228 39.1402 58.4596 42.7624 54.6082 42.7624H44.0754" fill="#C1CDD3"/>
<path d="M54.6094 43.4064H44.0754C43.92 43.4064 43.771 43.3385 43.6611 43.2176C43.5512 43.0967 43.4895 42.9327 43.4895 42.7618C43.4895 42.5908 43.5512 42.4268 43.6611 42.3059C43.771 42.185 43.92 42.1171 44.0754 42.1171H54.6094C58.2375 42.1171 61.2621 38.687 61.4953 34.3079C61.5757 33.0851 61.4292 31.857 61.0647 30.6985C60.7001 29.54 60.1252 28.4751 59.3748 27.5687C58.803 26.8749 58.1071 26.3184 57.3308 25.9341C56.5544 25.5497 55.7144 25.3458 54.8631 25.335H44.0754C43.92 25.335 43.771 25.2671 43.6611 25.1462C43.5512 25.0253 43.4895 24.8614 43.4895 24.6904C43.4895 24.5194 43.5512 24.3555 43.6611 24.2346C43.771 24.1137 43.92 24.0457 44.0754 24.0457H54.8631C55.8739 24.0559 56.8718 24.2954 57.7946 24.7494C58.7173 25.2035 59.5449 25.8622 60.2256 26.6843C61.0854 27.7185 61.7449 28.9344 62.164 30.258C62.583 31.5816 62.7528 32.9852 62.6631 34.3833C62.3942 39.4431 58.8557 43.4064 54.6094 43.4064Z" fill="#2F3A5A"/>
<path d="M44.3191 30.3208H15.8719C15.568 30.3185 15.2683 30.2434 14.9935 30.1008C14.7187 29.9582 14.4754 29.7515 14.2805 29.495C13.8484 28.9418 13.6135 28.2349 13.6195 27.5056C13.5808 26.8042 13.796 26.1145 14.218 25.5872C14.64 25.0598 15.2346 24.7376 15.8719 24.6911H44.3941C48.5461 24.6911 51.8941 29.0824 51.6094 34.3459C51.3539 39.1402 47.9883 42.7618 44.1387 42.7618H18.8748C17.6515 42.7321 16.4831 42.1976 15.6013 41.2642C14.7195 40.3309 14.1889 39.067 14.1147 37.7233C13.8369 33.1914 15.9539 30.3201 18.7166 30.3201" fill="#F0F5F9"/>
<path d="M44.1387 43.4065H18.8748C17.5011 43.3829 16.1865 42.7882 15.195 41.742C14.2035 40.6958 13.6086 39.2754 13.5299 37.7664C13.3682 35.1234 13.9764 32.8426 15.2426 31.3522C15.3621 31.2114 15.4883 31.0776 15.6205 30.9512C14.9262 30.8747 14.2863 30.5033 13.8369 29.9159C13.3121 29.2462 13.0266 28.3892 13.0336 27.505C12.9959 26.6328 13.2732 25.7796 13.805 25.1314C14.3368 24.4833 15.08 24.0928 15.8725 24.0451H44.3941C45.405 24.0554 46.403 24.2952 47.3258 24.7494C48.2485 25.2037 49.0761 25.8626 49.7566 26.685C50.6165 27.7192 51.276 28.9351 51.695 30.2587C52.1141 31.5823 52.2839 32.9859 52.1941 34.384C51.9246 39.4432 48.3861 43.4065 44.1387 43.4065ZM18.7166 30.9648C18.2237 30.962 17.7357 31.0735 17.2846 31.292C16.8334 31.5104 16.4291 31.831 16.098 32.2328C15.0557 33.4576 14.5588 35.3916 14.6988 37.6794C14.7688 38.8578 15.2353 39.9651 16.0073 40.7855C16.7793 41.6059 17.8014 42.0804 18.8742 42.1165H44.1387C47.7662 42.1165 50.7908 38.6864 51.0246 34.3073C51.105 33.0845 50.9585 31.8564 50.594 30.6979C50.2294 29.5394 49.6545 28.4745 48.9041 27.5681C48.3322 26.8743 47.6364 26.3178 46.86 25.9335C46.0837 25.5491 45.2436 25.3452 44.3924 25.3344H15.8719C15.3908 25.3833 14.9464 25.6383 14.6345 26.0443C14.3227 26.4503 14.1684 26.9749 14.2049 27.505C14.1982 28.0776 14.3813 28.6333 14.7199 29.0682C14.8601 29.2557 15.0358 29.4071 15.2348 29.5119C15.4338 29.6167 15.6513 29.6723 15.8719 29.6748H44.3191C44.4745 29.6748 44.6236 29.7428 44.7335 29.8637C44.8433 29.9845 44.9051 30.1485 44.9051 30.3195C44.9051 30.4905 44.8433 30.6544 44.7335 30.7753C44.6236 30.8962 44.4745 30.9641 44.3191 30.9641L18.7166 30.9648Z" fill="#2F3A5A"/>
<path d="M44.3941 37.7768H18.7166C18.5612 37.7768 18.4122 37.7088 18.3023 37.5879C18.1924 37.467 18.1307 37.3031 18.1307 37.1321C18.1307 36.9611 18.1924 36.7972 18.3023 36.6763C18.4122 36.5554 18.5612 36.4875 18.7166 36.4875H44.3941C44.6889 36.4822 44.9789 36.4047 45.2431 36.2607C45.5072 36.1166 45.7388 35.9095 45.9211 35.6546C46.1768 35.3049 46.3596 34.8976 46.4566 34.4616C46.5536 34.0257 46.5624 33.5716 46.4824 33.1314C46.4106 32.5485 46.1544 32.0121 45.7588 31.6164C45.3631 31.2208 44.8534 30.9912 44.3191 30.968C44.1637 30.968 44.0147 30.9001 43.9048 30.7792C43.7949 30.6583 43.7332 30.4943 43.7332 30.3234C43.7332 30.1524 43.7949 29.9884 43.9048 29.8675C44.0147 29.7466 44.1637 29.6787 44.3191 29.6787C45.1283 29.7009 45.9045 30.0362 46.5112 30.6257C47.1178 31.2153 47.5162 32.0212 47.6361 32.9019C47.7475 33.5282 47.7322 34.1738 47.5912 34.7928C47.4503 35.4118 47.1871 35.9891 46.8205 36.4836C46.527 36.8817 46.1575 37.2039 45.7382 37.4274C45.3189 37.6509 44.86 37.7701 44.3941 37.7768Z" fill="#2F3A5A"/>
<path d="M44.0754 42.7617H54.8631C59.015 42.7617 62.3631 47.1531 62.0783 52.4166C61.8228 57.2109 58.4596 60.8331 54.6082 60.8331H44.0754" fill="#EF5361"/>
<path d="M44.3191 48.3915H15.8719C15.568 48.3891 15.2683 48.3141 14.9935 48.1715C14.7187 48.0289 14.4754 47.8221 14.2805 47.5657C13.8484 47.0125 13.6135 46.3056 13.6195 45.5763C13.5808 44.8749 13.796 44.1852 14.218 43.6579C14.64 43.1305 15.2346 42.8083 15.8719 42.7617H44.3941C48.5461 42.7617 51.8941 47.1531 51.6094 52.4166C51.3539 57.2115 47.9883 60.8331 44.1387 60.8331H18.8748C17.6515 60.8034 16.4831 60.2689 15.6013 59.3355C14.7195 58.4022 14.1889 57.1383 14.1147 55.7946C13.8369 51.2627 15.9539 48.3915 18.7166 48.3915" fill="#EF5361"/>
<path d="M44.0754 58.3829H54.8631C59.015 58.3829 62.3631 62.7742 62.0783 68.0377C61.8228 72.832 58.4596 76.4542 54.6082 76.4542H44.0754" fill="#D9E2E9"/>
<path d="M54.6094 77.0963H44.0754C43.92 77.0963 43.771 77.0284 43.6611 76.9075C43.5512 76.7866 43.4895 76.6226 43.4895 76.4516C43.4895 76.2807 43.5512 76.1167 43.6611 75.9958C43.771 75.8749 43.92 75.807 44.0754 75.807H54.6094C58.2375 75.807 61.2621 72.3768 61.4953 67.9977C61.5757 66.7749 61.4292 65.5469 61.0647 64.3884C60.7001 63.2298 60.1252 62.165 59.3748 61.2586C58.803 60.5648 58.1071 60.0083 57.3308 59.6239C56.5544 59.2396 55.7144 59.0356 54.8631 59.0249H44.0754C43.92 59.0249 43.771 58.957 43.6611 58.8361C43.5512 58.7152 43.4895 58.5512 43.4895 58.3802C43.4895 58.2093 43.5512 58.0453 43.6611 57.9244C43.771 57.8035 43.92 57.7356 44.0754 57.7356H54.8631C55.8739 57.7457 56.8718 57.9853 57.7946 58.4393C58.7173 58.8933 59.5449 59.552 60.2256 60.3741C61.0854 61.4084 61.7449 62.6243 62.164 63.9479C62.583 65.2715 62.7528 66.675 62.6631 68.0732C62.3942 73.1349 58.8557 77.0963 54.6094 77.0963Z" fill="#2F3A5A"/>
<path d="M44.3191 64.0099H15.8719C15.568 64.0076 15.2683 63.9326 14.9935 63.79C14.7187 63.6474 14.4754 63.4406 14.2805 63.1842C13.8484 62.631 13.6135 61.9241 13.6195 61.1948C13.5808 60.4934 13.796 59.8037 14.218 59.2764C14.64 58.749 15.2346 58.4268 15.8719 58.3802H44.3941C48.5461 58.3802 51.8941 62.7716 51.6094 68.0351C51.3539 72.8319 47.9883 76.4516 44.1387 76.4516H18.8748C17.6515 76.4219 16.4831 75.8874 15.6013 74.954C14.7195 74.0207 14.1889 72.7568 14.1147 71.4131C13.8369 66.8812 15.9539 64.0099 18.7166 64.0099" fill="#D9E2E9"/>
<path d="M44.0754 6.61966H54.8631C59.015 6.61966 62.3631 11.011 62.0783 16.2745C61.8228 21.0688 58.4596 24.691 54.6082 24.691H44.0754" fill="#FFC943"/>
<path d="M54.6094 25.335H44.0754C43.92 25.335 43.771 25.2671 43.6611 25.1462C43.5512 25.0253 43.4895 24.8614 43.4895 24.6904C43.4895 24.5194 43.5512 24.3554 43.6611 24.2346C43.771 24.1137 43.92 24.0457 44.0754 24.0457H54.6094C58.2375 24.0457 61.2621 20.6156 61.4953 16.2365C61.5757 15.0138 61.4292 13.7859 61.0646 12.6274C60.7001 11.469 60.1251 10.4043 59.3748 9.498C58.803 8.80418 58.1071 8.24768 57.3308 7.86333C56.5544 7.47898 55.7144 7.27505 54.8631 7.2643H44.0754C43.92 7.2643 43.771 7.19638 43.6611 7.07549C43.5512 6.95459 43.4895 6.79062 43.4895 6.61965C43.4895 6.44868 43.5512 6.28471 43.6611 6.16382C43.771 6.04292 43.92 5.97501 44.0754 5.97501H54.8631C55.8739 5.98519 56.872 6.22478 57.7948 6.67879C58.7176 7.1328 59.5453 7.79145 60.2262 8.61354C61.0859 9.64784 61.7453 10.8638 62.1642 12.1874C62.5831 13.511 62.7529 14.9145 62.6631 16.3126C62.3942 21.3717 58.8557 25.335 54.6094 25.335Z" fill="#2F3A5A"/>
<path d="M44.3191 12.2494H15.8719C15.568 12.2471 15.2683 12.172 14.9935 12.0294C14.7187 11.8868 14.4754 11.6801 14.2805 11.4236C13.8484 10.8704 13.6135 10.1635 13.6195 9.43419C13.5808 8.73284 13.796 8.04313 14.218 7.51576C14.64 6.9884 15.2346 6.66623 15.8719 6.61966H44.3941C48.5461 6.61966 51.8941 11.011 51.6094 16.2745C51.3539 21.0688 47.9883 24.691 44.1387 24.691H18.8748C17.6515 24.6613 16.4831 24.1268 15.6013 23.1934C14.7195 22.2601 14.1889 20.9962 14.1147 19.6525C13.8369 15.1206 15.9539 12.2494 18.7166 12.2494" fill="#FFC943"/>
<path d="M44.1387 25.335H18.8748C17.5012 25.3115 16.1865 24.7168 15.195 23.6706C14.2035 22.6243 13.6086 21.204 13.5299 19.695C13.3682 17.052 13.9764 14.7712 15.242 13.2814C15.3617 13.1406 15.4881 13.0068 15.6205 12.8805C14.9263 12.8039 14.2867 12.4325 13.8375 11.8452C13.3123 11.1756 13.0266 10.3186 13.0336 9.43418C12.9961 8.56211 13.2734 7.70908 13.8052 7.06109C14.337 6.41309 15.0801 6.02269 15.8725 5.97501H44.3941C45.405 5.98519 46.403 6.22478 47.3259 6.67879C48.2487 7.1328 49.0764 7.79145 49.7572 8.61354C50.6169 9.64784 51.2763 10.8638 51.6952 12.1874C52.1142 13.511 52.2839 14.9145 52.1941 16.3126C51.9246 21.3717 48.3861 25.335 44.1387 25.335ZM18.7166 12.8934C18.2236 12.8909 17.7357 13.0025 17.2845 13.2209C16.8332 13.4394 16.4288 13.7598 16.0975 14.1614C15.0557 15.3862 14.5588 17.3201 14.6988 19.608C14.7688 20.7863 15.2354 21.8937 16.0073 22.7141C16.7793 23.5344 17.8014 24.009 18.8742 24.0451H44.1387C47.7662 24.0451 50.7908 20.6149 51.0246 16.2358C51.105 15.0131 50.9584 13.7852 50.5939 12.6268C50.2294 11.4684 49.6544 10.4036 48.9041 9.49736C48.3322 8.80353 47.6364 8.24704 46.86 7.86268C46.0837 7.47833 45.2436 7.2744 44.3924 7.26365H15.8719C15.3908 7.31238 14.9464 7.56718 14.6346 7.97311C14.3227 8.37903 14.1684 8.90355 14.2049 9.43354C14.1983 10.0062 14.3814 10.5618 14.7199 10.9968C14.8602 11.1841 15.0359 11.3355 15.2349 11.4403C15.4339 11.5451 15.6513 11.6007 15.8719 11.6034H44.3191C44.4745 11.6034 44.6236 11.6713 44.7335 11.7922C44.8434 11.9131 44.9051 12.0771 44.9051 12.2481C44.9051 12.419 44.8434 12.583 44.7335 12.7039C44.6236 12.8248 44.4745 12.8927 44.3191 12.8927L18.7166 12.8934Z" fill="#2F3A5A"/>
<path d="M44.3941 19.706H18.7166C18.5612 19.706 18.4122 19.6381 18.3023 19.5172C18.1924 19.3963 18.1307 19.2323 18.1307 19.0614C18.1307 18.8904 18.1924 18.7264 18.3023 18.6055C18.4122 18.4846 18.5612 18.4167 18.7166 18.4167H44.3941C44.6889 18.4115 44.9789 18.334 45.2431 18.1899C45.5072 18.0458 45.7388 17.8388 45.9211 17.5838C46.1773 17.2338 46.3603 16.826 46.4574 16.3894C46.5544 15.9528 46.5629 15.4981 46.4824 15.0575C46.4106 14.4746 46.1544 13.9381 45.7587 13.5425C45.3631 13.1468 44.8534 12.9172 44.3191 12.894C44.1637 12.894 44.0147 12.8261 43.9048 12.7052C43.7949 12.5843 43.7332 12.4204 43.7332 12.2494C43.7332 12.0784 43.7949 11.9144 43.9048 11.7935C44.0147 11.6727 44.1637 11.6047 44.3191 11.6047C45.1283 11.6269 45.9045 11.9622 46.5112 12.5518C47.1178 13.1413 47.5162 13.9473 47.6361 14.828C47.7472 15.4539 47.7318 16.0992 47.5908 16.7178C47.4498 17.3365 47.1869 17.9134 46.8205 18.4077C46.5274 18.8068 46.1581 19.1299 45.7388 19.3543C45.3195 19.5787 44.8604 19.6988 44.3941 19.706Z" fill="#2F3A5A"/>
<path d="M5.4041 37.1321L11.8049 73.202C12.0155 74.3945 12.5968 75.4692 13.449 76.2416C14.3012 77.0141 15.3712 77.4362 16.4754 77.4354H58.5246C59.6288 77.4362 60.6988 77.0141 61.551 76.2416C62.4032 75.4692 62.9845 74.3945 63.1951 73.202L69.5959 37.1321H5.4041ZM11.3807 43.8184H17.0057L17.6672 49.8078H12.2273L11.3807 43.8184ZM12.6609 52.9498H18.0135L18.6111 58.3822H13.4232L12.6609 52.9498ZM13.824 61.238H18.9305L19.4719 66.1754H14.5201L13.824 61.238ZM15.5191 73.2929L14.8857 68.7733H19.7602L20.2523 73.2929H15.5191ZM20.7029 43.8164H26.3373L26.6959 49.8058H21.2467L20.7029 43.8164ZM21.5232 52.9478H26.8758L27.2063 58.3803H22.0184L21.5232 52.9478ZM22.2785 61.238H27.3762L27.6691 66.1754H22.7221L22.2785 61.238ZM23.3619 73.2929L22.9518 68.7733H27.8262L28.1004 73.2929H23.3619ZM30.0229 43.8184H35.6572L35.7158 49.8078H30.2666L30.0229 43.8184ZM30.3885 52.9498H35.7486L35.7979 58.3822H30.607L30.3885 52.9498ZM30.7266 61.238H35.8242L35.8734 66.1754H30.9234L30.7266 61.238ZM31.2047 73.2929L31.0289 68.7733H35.9033L35.9455 73.2929H31.2047ZM43.7953 73.2929H39.0545L39.0967 68.7733H43.9711L43.7953 73.2929ZM44.0766 66.1734H39.1248L39.174 61.2361H44.2717L44.0766 66.1734ZM44.393 58.3803H39.2022L39.2607 52.9478H44.6133L44.393 58.3803ZM44.7375 49.8065H39.2883L39.3469 43.8171H44.9813L44.7375 49.8065ZM51.6381 73.2929H46.8973L47.1715 68.7733H52.0459L51.6381 73.2929ZM52.2785 66.1734H47.3262L47.6191 61.2361H52.7285L52.2785 66.1734ZM52.9816 58.3803H47.7908L48.1213 52.9478H53.4744L52.9816 58.3803ZM53.7551 49.8065H48.3059L48.6715 43.8171H54.2965L53.7551 49.8065ZM59.4809 73.2935H54.7471L55.2393 68.7739H60.1137L59.4809 73.2935ZM60.477 66.1741H55.5281L56.0695 61.2367H61.176L60.477 66.1741ZM61.5744 58.3809H56.3859L56.9842 52.9485H62.3367L61.5744 58.3809ZM62.7774 49.8071H57.3281L57.9891 43.8177H63.6141L62.7774 49.8071Z" fill="#078DD8" stroke="#2F3A5A" stroke-width="8" stroke-linecap="round" stroke-linejoin="round"/>
<path d="M71.5963 33.0025H3.4043C2.65698 33.0025 1.94027 33.3291 1.41183 33.9105C0.883397 34.4919 0.586525 35.2804 0.586525 36.1026C0.586525 36.9248 0.883397 37.7133 1.41183 38.2947C1.94027 38.8761 2.65698 39.2027 3.4043 39.2027H71.5963C72.3436 39.2027 73.0603 38.8761 73.5888 38.2947C74.1172 37.7133 74.4141 36.9248 74.4141 36.1026C74.4141 35.2804 74.1172 34.4919 73.5888 33.9105C73.0603 33.3291 72.3436 33.0025 71.5963 33.0025Z" fill="#078DD8"/>
<path d="M74.3842 35.6656C74.3522 35.6601 74.3198 35.6579 74.2875 35.6591H6.09375C5.34782 35.6591 4.63245 35.9851 4.10501 36.5654C3.57756 37.1457 3.28125 37.9328 3.28125 38.7534C3.28197 38.8999 3.29195 39.0462 3.31113 39.1911C2.56521 39.1772 1.85487 38.8378 1.33638 38.2477C0.817887 37.6575 0.533717 36.865 0.546383 36.0443C0.559048 35.2236 0.86751 34.4421 1.40391 33.8717C1.94031 33.3012 2.66072 32.9886 3.40664 33.0025H71.5939C72.2728 33.0011 72.9293 33.27 73.4421 33.7594C73.955 34.2489 74.2896 34.9259 74.3842 35.6656Z" fill="#0AA4E8"/>
<path d="M71.5957 39.8461H3.40488C2.95266 39.8553 2.50331 39.7653 2.08307 39.5813C1.66284 39.3973 1.28015 39.1229 0.957373 38.7744C0.634598 38.4258 0.378208 38.0099 0.203185 37.5511C0.0281621 37.0922 -0.0619831 36.5996 -0.0619831 36.102C-0.0619831 35.6043 0.0281621 35.1117 0.203185 34.6529C0.378208 34.194 0.634598 33.7782 0.957373 33.4296C1.28015 33.081 1.66284 32.8067 2.08307 32.6227C2.50331 32.4386 2.95266 32.3486 3.40488 32.3579H71.5957C72.4985 32.3579 73.3643 32.7524 74.0027 33.4548C74.6411 34.1571 74.9997 35.1097 74.9997 36.1029C74.9997 37.0962 74.6411 38.0488 74.0027 38.7511C73.3643 39.4534 72.4985 39.848 71.5957 39.848V39.8461ZM3.40488 33.6471C3.11175 33.6471 2.8215 33.7107 2.55068 33.8341C2.27987 33.9575 2.0338 34.1384 1.82653 34.3664C1.61926 34.5945 1.45484 34.8652 1.34266 35.1631C1.23049 35.4611 1.17275 35.7804 1.17275 36.1029C1.17275 36.4254 1.23049 36.7448 1.34266 37.0427C1.45484 37.3407 1.61926 37.6114 1.82653 37.8394C2.0338 38.0675 2.27987 38.2484 2.55068 38.3718C2.8215 38.4952 3.11175 38.5587 3.40488 38.5587H71.5957C71.8888 38.5587 72.1791 38.4952 72.4499 38.3718C72.7207 38.2484 72.9668 38.0675 73.1741 37.8394C73.3813 37.6114 73.5457 37.3407 73.6579 37.0427C73.7701 36.7448 73.8278 36.4254 73.8278 36.1029C73.8278 35.7804 73.7701 35.4611 73.6579 35.1631C73.5457 34.8652 73.3813 34.5945 73.1741 34.3664C72.9668 34.1384 72.7207 33.9575 72.4499 33.8341C72.1791 33.7107 71.8888 33.6471 71.5957 33.6471H3.40488Z" fill="#2F3A5A"/>
</g>
<defs>
<clipPath id="clip0">
<rect width="75" height="82.5148" fill="white" transform="translate(0 0.770142)"/>
</clipPath>
</defs>
</svg>
