<svg width="75" height="75" viewBox="0 0 75 75" fill="none" xmlns="http://www.w3.org/2000/svg">
<path d="M1.68641 23.751C1.82469 24.0439 1.97586 24.3293 2.13465 24.6064H2.12996C11.8682 44.4831 27.9223 60.5697 47.7792 70.3482C48.1325 70.5626 48.4969 70.7582 48.8708 70.9342C50.252 71.5816 51.7472 71.9507 53.271 72.0202C54.7948 72.0898 56.3174 71.8586 57.7518 71.3398C59.1863 70.8209 60.5045 70.0246 61.6312 68.9963C62.7579 67.968 63.671 66.7279 64.3184 65.3467C65.5126 62.799 66.7149 57.876 66.3036 54.832C66.2602 54.5043 66.1352 54.1926 65.9401 53.9258C65.745 53.6589 65.4859 53.4452 65.1868 53.3045L51.9833 47.1164C51.6839 46.9763 51.354 46.9136 51.0241 46.9341C50.6941 46.9545 50.3746 47.0575 50.0948 47.2336C47.4921 48.8672 44.4774 52.94 43.2833 55.4883C43.1784 55.7121 43.0841 55.9383 42.9944 56.165C32.3979 49.2602 23.3555 40.2243 16.4432 29.6326C16.6776 29.5418 16.9056 29.4457 17.1335 29.3396C19.6811 28.1455 23.7546 25.1308 25.3858 22.5281C25.5619 22.2483 25.6649 21.9288 25.6853 21.5988C25.7058 21.2689 25.6431 20.9391 25.503 20.6396L19.3161 7.43495C19.1753 7.1358 18.9617 6.87678 18.6948 6.68166C18.4279 6.48653 18.1163 6.36154 17.7886 6.31815C14.7417 5.908 9.81981 7.10917 7.27391 8.30331C5.89271 8.95072 4.65256 9.86385 3.62426 10.9906C2.59596 12.1173 1.79965 13.4355 1.28081 14.8699C0.761957 16.3044 0.530728 17.827 0.600322 19.3508C0.669916 20.8746 1.03897 22.3698 1.68641 23.751Z" fill="#EF5361"/>
<path d="M64.3181 65.3497C63.6706 66.7305 62.7574 67.9702 61.6308 68.9981C60.5042 70.026 59.1861 70.822 57.7519 71.3405C56.3177 71.859 54.7954 72.09 53.2719 72.0202C51.7484 71.9504 50.2536 71.5812 48.8728 70.9336C48.4961 70.7605 48.1302 70.5648 47.7771 70.3477C27.9208 60.5717 11.8678 44.4857 2.13254 24.6094V24.6035C1.97433 24.3282 1.82199 24.0469 1.68723 23.7481C1.4268 23.1913 1.20937 22.6154 1.03683 22.0254C5.70164 30.9062 11.679 39.0327 18.7673 46.1309C26.5291 53.9118 35.5208 60.3596 45.3806 65.2149C45.7321 65.4258 46.0954 65.6192 46.4763 65.8008C49.2659 67.1062 52.4597 67.2507 55.3558 66.2026C58.252 65.1544 60.6135 62.9994 61.9216 60.211C62.955 57.8207 63.6227 55.2884 63.9021 52.6993L65.1853 53.3028C65.4851 53.4434 65.7447 53.6572 65.9403 53.9244C66.1358 54.1916 66.2611 54.5038 66.3044 54.8321C66.7146 57.8789 65.5134 62.8008 64.3181 65.3497Z" fill="#DA2A47"/>
<path d="M53.7813 72.6187C51.9973 72.6186 50.2353 72.2248 48.6209 71.4656C48.2286 71.2811 47.8463 71.0761 47.4754 70.8516C27.543 60.9856 11.4198 44.8227 1.60296 24.866C1.59651 24.8525 1.59065 24.8391 1.58538 24.8256C1.41897 24.5326 1.27835 24.2613 1.15589 23.9988C-0.213792 21.0684 -0.365118 17.7143 0.735109 14.6724C1.83534 11.6305 4.09726 9.14929 7.02464 7.77305C9.45394 6.63399 14.5721 5.29278 17.8645 5.73751C18.2894 5.79347 18.6935 5.95547 19.0394 6.2086C19.3853 6.46172 19.6619 6.79783 19.8438 7.18594L26.0354 20.3906C26.2176 20.7786 26.2992 21.2063 26.2726 21.6342C26.2459 22.062 26.112 22.4762 25.883 22.8387C24.1188 25.6512 19.8133 28.7309 17.3828 29.8699L17.3196 29.8992C23.9951 39.9858 32.6375 48.6214 42.7293 55.2891C42.7369 55.2721 42.7446 55.2551 42.7528 55.2381C43.8912 52.8088 46.968 48.4998 49.784 46.7385C50.1464 46.5093 50.5607 46.375 50.9887 46.3482C51.4166 46.3214 51.8445 46.4028 52.2327 46.585L65.4362 52.7742C65.8244 52.9561 66.1606 53.2327 66.4138 53.5786C66.667 53.9245 66.8291 54.3285 66.8852 54.7535C67.3293 58.0465 65.9887 63.1658 64.8491 65.5934C63.8622 67.6948 62.2972 69.4717 60.337 70.7159C58.3769 71.9601 56.1029 72.6201 53.7813 72.6187ZM2.69163 24.4236C12.4079 44.1289 28.3445 60.0849 48.0379 69.825C48.3885 70.0364 48.7495 70.23 49.1196 70.4051C51.7688 71.643 54.8009 71.7796 57.5507 70.785C60.3005 69.7903 62.5436 67.7456 63.7879 65.0994C65.0289 62.451 66.103 57.7254 65.7215 54.9117C65.6914 54.6809 65.6037 54.4614 65.4665 54.2734C65.3293 54.0854 65.147 53.935 64.9364 53.8359L51.7346 47.6467C51.5238 47.548 51.2915 47.5042 51.0592 47.5191C50.8269 47.5341 50.6021 47.6074 50.4057 47.7322C47.9998 49.2398 45.0543 53.0883 43.8133 55.7367C43.7131 55.95 43.6241 56.1645 43.5391 56.3813C43.5073 56.4622 43.4579 56.5351 43.3944 56.5946C43.3309 56.6541 43.255 56.6987 43.1721 56.7251C43.0892 56.7516 43.0015 56.7593 42.9153 56.7477C42.8291 56.736 42.7465 56.7053 42.6737 56.6578C31.9986 49.7208 22.8959 40.6235 15.9526 29.9525C15.905 29.8797 15.8744 29.7971 15.8627 29.7109C15.8511 29.6247 15.8588 29.537 15.8852 29.4541C15.9117 29.3713 15.9563 29.2953 16.0158 29.2318C16.0753 29.1684 16.1482 29.1189 16.2291 29.0871C16.4489 29.001 16.6686 28.9113 16.886 28.8076C19.5344 27.566 23.3823 24.6211 24.8899 22.2152C25.0144 22.0188 25.0875 21.7941 25.1024 21.562C25.1172 21.3298 25.0734 21.0977 24.9748 20.8869L18.7856 7.68341C18.6866 7.4729 18.5362 7.29069 18.3483 7.15358C18.1604 7.01647 17.941 6.92886 17.7104 6.89884C14.8944 6.5168 10.1705 7.59259 7.52269 8.83243C4.87595 10.0765 2.83082 12.3197 1.83603 15.0699C0.841244 17.8201 0.978052 20.8525 2.21644 23.502C2.33362 23.7557 2.47483 24.0211 2.643 24.3141C2.66285 24.3489 2.67914 24.3856 2.69163 24.4236Z" fill="#2F3A5A"/>
<path d="M22.5451 25.6711C23.6332 24.7598 24.5893 23.7016 25.3858 22.5269C25.5618 22.2471 25.6648 21.9276 25.6853 21.5976C25.7058 21.2677 25.6431 20.9379 25.503 20.6385L19.316 7.43494C19.1752 7.13579 18.9616 6.87677 18.6947 6.68165C18.4278 6.48652 18.1162 6.36153 17.7884 6.31814C16.3759 6.17877 14.9509 6.23655 13.5544 6.48982L22.5451 25.6711Z" fill="#D9E2E9"/>
<path d="M22.5476 26.2571C22.4363 26.257 22.3273 26.2252 22.2334 26.1654C22.1394 26.1057 22.0645 26.0204 22.0173 25.9196L13.0261 6.7383C12.9876 6.65605 12.9687 6.56597 12.9709 6.47517C12.9732 6.38437 12.9965 6.29534 13.039 6.2151C13.0816 6.13486 13.1422 6.06561 13.2162 6.01283C13.2901 5.96005 13.3753 5.92517 13.465 5.91095C14.9176 5.64793 16.3999 5.58876 17.8689 5.73517C18.294 5.79104 18.6982 5.95307 19.0442 6.20632C19.3903 6.45956 19.6669 6.79586 19.8488 7.1842L26.0374 20.3906C26.2197 20.7787 26.3012 21.2063 26.2746 21.6342C26.248 22.062 26.114 22.4763 25.8851 22.8387C25.0587 24.0623 24.0653 25.1644 22.9337 26.1129C22.8267 26.2061 22.6895 26.2574 22.5476 26.2571ZM14.423 6.9592L22.7433 24.7049C23.5603 23.9672 24.2827 23.1309 24.8937 22.2153C25.0182 22.0188 25.0913 21.7941 25.1062 21.562C25.121 21.3298 25.0772 21.0977 24.9786 20.8869L18.7876 7.68342C18.6886 7.4728 18.5382 7.29052 18.3502 7.15339C18.1622 7.01627 17.9426 6.92872 17.7118 6.89885C16.6173 6.78236 15.5125 6.80263 14.423 6.9592Z" fill="#2F3A5A"/>
<path d="M46.9505 50.076C47.8625 48.9878 48.9215 48.0317 50.097 47.2354C50.3768 47.0593 50.6964 46.9563 51.0263 46.9359C51.3563 46.9154 51.6861 46.9781 51.9855 47.1182L65.1884 53.3074C65.4876 53.4482 65.7466 53.6618 65.9417 53.9287C66.1368 54.1956 66.2618 54.5072 66.3052 54.835C66.4446 56.2474 66.3868 57.6724 66.1335 59.069L46.9505 50.076Z" fill="#D9E2E9"/>
<path d="M66.1334 59.6531C66.0473 59.6531 65.9622 59.6341 65.8843 59.5975L46.7037 50.6062C46.6215 50.5676 46.5494 50.5105 46.4931 50.4392C46.4368 50.368 46.3979 50.2847 46.3793 50.1958C46.3607 50.107 46.363 50.015 46.3861 49.9272C46.4091 49.8394 46.4522 49.7581 46.5121 49.6898C47.4603 48.5584 48.5622 47.5652 49.7857 46.739C50.1481 46.5098 50.5624 46.3756 50.9904 46.3488C51.4183 46.322 51.8461 46.4034 52.2343 46.5855L65.4379 52.7748C65.826 52.9566 66.1622 53.2333 66.4155 53.5792C66.6687 53.925 66.8308 54.3291 66.8869 54.7541C67.0339 56.2233 66.9747 57.7058 66.7111 59.1586C66.6893 59.2964 66.6191 59.4219 66.5131 59.5125C66.4071 59.6032 66.2723 59.653 66.1328 59.6531H66.1334ZM47.9189 49.882L65.664 58.2023C65.8194 57.1129 65.839 56.0084 65.7226 54.9141C65.6925 54.6833 65.6048 54.4638 65.4676 54.2758C65.3304 54.0878 65.1481 53.9373 64.9375 53.8383L51.7369 47.6467C51.526 47.5482 51.2938 47.5043 51.0615 47.5191C50.8293 47.534 50.6045 47.6071 50.408 47.7316C49.4926 48.3428 48.6565 49.0651 47.9189 49.882Z" fill="#2F3A5A"/>
<path d="M54.5941 2.96426C43.6476 2.96426 34.774 9.96094 34.774 18.5859C34.774 23.7522 37.9575 28.3307 42.86 31.1742L39.8852 39.1359L47.8863 33.2883C50.069 33.9023 52.3261 34.2117 54.5935 34.2076C65.5401 34.2076 74.4136 27.2133 74.4136 18.5859C74.4136 9.9586 65.5401 2.96426 54.5941 2.96426Z" fill="#81DAFC"/>
<path d="M74.4142 18.5859C74.4142 27.2109 65.5431 34.207 54.592 34.207C52.3258 34.2126 50.0698 33.903 47.8889 33.2871L39.8849 39.1348L41.8947 33.7617L46.5998 30.3223C48.7826 30.9386 51.0406 31.2482 53.3088 31.2422C64.2541 31.2422 73.1252 24.252 73.1252 15.6211C73.1242 14.4274 72.9545 13.2399 72.6213 12.0938C73.7881 14.0588 74.4072 16.3006 74.4142 18.5859Z" fill="#3DBCE9"/>
<path d="M39.8852 39.7219C39.7906 39.7219 39.6974 39.699 39.6135 39.6552C39.5297 39.6113 39.4577 39.5478 39.4037 39.47C39.3498 39.3923 39.3154 39.3027 39.3037 39.2088C39.2919 39.1149 39.3031 39.0195 39.3362 38.9309L42.1405 31.4274C37.1506 28.3699 34.1881 23.6016 34.1881 18.5859C34.1881 9.64923 43.3423 2.37833 54.5941 2.37833C65.846 2.37833 74.9995 9.64864 74.9995 18.5859C74.9995 27.5233 65.846 34.7936 54.5941 34.7936C52.3686 34.7963 50.1524 34.5045 48.0034 33.9258L40.2309 39.6094C40.1305 39.6826 40.0095 39.722 39.8852 39.7219ZM54.5924 3.5502C43.9868 3.5502 35.3582 10.2955 35.3582 18.5859C35.3582 23.3203 38.2727 27.8367 43.1513 30.6674C43.271 30.7368 43.3623 30.8464 43.4089 30.9767C43.4556 31.107 43.4546 31.2497 43.4061 31.3793L41.1157 37.5082L47.5411 32.8125C47.6132 32.7605 47.6961 32.7256 47.7836 32.7104C47.8711 32.6952 47.9609 32.7 48.0462 32.7246C50.1771 33.324 52.3806 33.6258 54.5941 33.6217C65.1997 33.6217 73.8277 26.8764 73.8277 18.5859C73.8277 10.2955 65.1991 3.5502 54.5941 3.5502H54.5924Z" fill="#2F3A5A"/>
<path d="M46.2917 21.0498C47.8215 21.0498 49.0616 19.8098 49.0616 18.2801C49.0616 16.7504 47.8215 15.5103 46.2917 15.5103C44.762 15.5103 43.5219 16.7504 43.5219 18.2801C43.5219 19.8098 44.762 21.0498 46.2917 21.0498Z" fill="#EBF0F3"/>
<path d="M46.2917 21.6357C45.628 21.6357 44.9791 21.4389 44.4272 21.0701C43.8754 20.7013 43.4452 20.1772 43.1913 19.564C42.9373 18.9507 42.8709 18.276 43.0005 17.625C43.1301 16.974 43.4498 16.3761 43.9193 15.9068C44.3887 15.4376 44.9867 15.1181 45.6378 14.9887C46.2888 14.8594 46.9636 14.926 47.5768 15.1802C48.1899 15.4343 48.714 15.8646 49.0826 16.4166C49.4512 16.9686 49.6478 17.6175 49.6476 18.2812C49.6462 19.1707 49.2921 20.0233 48.663 20.6521C48.034 21.2809 47.1812 21.6347 46.2917 21.6357ZM46.2917 16.0963C45.8599 16.0963 45.4377 16.2243 45.0786 16.4642C44.7195 16.7041 44.4395 17.0451 44.2742 17.4441C44.1089 17.8431 44.0656 18.2821 44.1497 18.7057C44.2339 19.1293 44.4418 19.5184 44.7471 19.8238C45.0524 20.1293 45.4414 20.3374 45.865 20.4218C46.2885 20.5062 46.7276 20.4631 47.1267 20.298C47.5257 20.1329 47.8669 19.8531 48.107 19.4942C48.3471 19.1352 48.4754 18.7131 48.4756 18.2812C48.4752 17.7022 48.2449 17.1469 47.8355 16.7374C47.4261 16.3278 46.8709 16.0975 46.2917 16.0969V16.0963Z" fill="#2F3A5A"/>
<path d="M54.5931 21.0498C56.1228 21.0498 57.3629 19.8098 57.3629 18.2801C57.3629 16.7504 56.1228 15.5103 54.5931 15.5103C53.0635 15.5103 51.8234 16.7504 51.8234 18.2801C51.8234 19.8098 53.0635 21.0498 54.5931 21.0498Z" fill="#EBF0F3"/>
<path d="M54.5943 21.6358C53.9305 21.636 53.2816 21.4394 52.7296 21.0707C52.1776 20.7021 51.7473 20.178 51.4931 19.5648C51.239 18.9516 51.1725 18.2768 51.3019 17.6257C51.4314 16.9747 51.751 16.3767 52.2203 15.9073C52.6897 15.4379 53.2877 15.1183 53.9388 14.9889C54.5898 14.8594 55.2646 14.926 55.8779 15.1801C56.4911 15.4342 57.0151 15.8645 57.3838 16.4165C57.7524 16.9685 57.949 17.6175 57.9488 18.2813C57.9474 19.1705 57.5936 20.0229 56.9648 20.6517C56.336 21.2805 55.4836 21.6344 54.5943 21.6358ZM54.5943 16.0963C54.1624 16.0961 53.7401 16.2239 53.3809 16.4637C53.0216 16.7035 52.7415 17.0444 52.576 17.4433C52.4105 17.8423 52.3671 18.2813 52.4511 18.705C52.5351 19.1286 52.7429 19.5179 53.0482 19.8234C53.3534 20.129 53.7424 20.3372 54.166 20.4217C54.5895 20.5062 55.0286 20.4632 55.4278 20.2981C55.8269 20.133 56.1681 19.8533 56.4083 19.4943C56.6484 19.1353 56.7767 18.7132 56.7769 18.2813C56.7765 17.7024 56.5464 17.1473 56.1373 16.7378C55.7281 16.3283 55.1732 16.0978 54.5943 16.0969V16.0963Z" fill="#2F3A5A"/>
<path d="M62.897 21.0498C64.4267 21.0498 65.6667 19.8098 65.6667 18.2801C65.6667 16.7504 64.4267 15.5103 62.897 15.5103C61.3673 15.5103 60.1273 16.7504 60.1273 18.2801C60.1273 19.8098 61.3673 21.0498 62.897 21.0498Z" fill="#EBF0F3"/>
<path d="M62.897 21.6358C62.2333 21.6358 61.5845 21.439 61.0327 21.0702C60.4808 20.7015 60.0507 20.1774 59.7968 19.5643C59.5428 18.9511 59.4763 18.2764 59.6058 17.6254C59.7353 16.9745 60.0549 16.3766 60.5242 15.9073C60.9935 15.438 61.5914 15.1184 62.2423 14.9889C62.8933 14.8594 63.568 14.9259 64.1811 15.1799C64.7943 15.4339 65.3184 15.864 65.6871 16.4158C66.0559 16.9676 66.2527 17.6164 66.2527 18.2801C66.2516 19.1697 65.8977 20.0226 65.2686 20.6517C64.6395 21.2808 63.7866 21.6347 62.897 21.6358ZM62.897 16.0963C62.4651 16.0963 62.0429 16.2244 61.6837 16.4643C61.3246 16.7043 61.0447 17.0454 60.8794 17.4444C60.7141 17.8434 60.6709 18.2825 60.7552 18.7061C60.8394 19.1298 61.0474 19.5189 61.3528 19.8243C61.6582 20.1297 62.0473 20.3377 62.471 20.4219C62.8946 20.5062 63.3337 20.4629 63.7327 20.2977C64.1317 20.1324 64.4728 19.8525 64.7127 19.4933C64.9527 19.1342 65.0808 18.712 65.0808 18.2801C65.08 17.7012 64.8497 17.1463 64.4403 16.737C64.0309 16.3277 63.4759 16.0975 62.897 16.0969V16.0963Z" fill="#2F3A5A"/>
</svg>
