<svg width="200" height="152" viewBox="0 0 200 152" fill="none" xmlns="http://www.w3.org/2000/svg">
<ellipse cx="5.88235" cy="5.84615" rx="5.88235" ry="5.84615" fill="#E7E7E7"/>
<ellipse cx="29.4118" cy="5.84615" rx="5.88235" ry="5.84615" fill="#E7E7E7"/>
<ellipse cx="52.9412" cy="5.84615" rx="5.88235" ry="5.84615" fill="#E7E7E7"/>
<ellipse cx="76.4706" cy="5.84615" rx="5.88235" ry="5.84615" fill="#E7E7E7"/>
<ellipse cx="100" cy="5.84615" rx="5.88235" ry="5.84615" fill="#E7E7E7"/>
<ellipse cx="123.529" cy="5.84615" rx="5.88235" ry="5.84615" fill="#E7E7E7"/>
<ellipse cx="147.059" cy="5.84615" rx="5.88235" ry="5.84615" fill="#E7E7E7"/>
<ellipse cx="170.588" cy="5.84615" rx="5.88235" ry="5.84615" fill="#E7E7E7"/>
<ellipse cx="194.118" cy="5.84615" rx="5.88235" ry="5.84615" fill="#E7E7E7"/>
<ellipse cx="5.88235" cy="122.769" rx="5.88235" ry="5.84615" fill="#E7E7E7"/>
<ellipse cx="29.4118" cy="122.769" rx="5.88235" ry="5.84615" fill="#E7E7E7"/>
<ellipse cx="52.9412" cy="122.769" rx="5.88235" ry="5.84615" fill="#E7E7E7"/>
<ellipse cx="76.4706" cy="122.769" rx="5.88235" ry="5.84615" fill="#E7E7E7"/>
<ellipse cx="100" cy="122.769" rx="5.88235" ry="5.84615" fill="#E7E7E7"/>
<ellipse cx="123.529" cy="122.769" rx="5.88235" ry="5.84615" fill="#E7E7E7"/>
<ellipse cx="147.059" cy="122.769" rx="5.88235" ry="5.84615" fill="#E7E7E7"/>
<ellipse cx="170.588" cy="122.769" rx="5.88235" ry="5.84615" fill="#E7E7E7"/>
<ellipse cx="194.118" cy="122.769" rx="5.88235" ry="5.84615" fill="#E7E7E7"/>
<ellipse cx="5.88235" cy="146.154" rx="5.88235" ry="5.84615" fill="#E7E7E7"/>
<ellipse cx="29.4118" cy="146.154" rx="5.88235" ry="5.84615" fill="#E7E7E7"/>
<ellipse cx="52.9412" cy="146.154" rx="5.88235" ry="5.84615" fill="#E7E7E7"/>
<ellipse cx="76.4706" cy="146.154" rx="5.88235" ry="5.84615" fill="#E7E7E7"/>
<ellipse cx="100" cy="146.154" rx="5.88235" ry="5.84615" fill="#E7E7E7"/>
<ellipse cx="123.529" cy="146.154" rx="5.88235" ry="5.84615" fill="#E7E7E7"/>
<ellipse cx="147.059" cy="146.154" rx="5.88235" ry="5.84615" fill="#E7E7E7"/>
<ellipse cx="170.588" cy="146.154" rx="5.88235" ry="5.84615" fill="#E7E7E7"/>
<ellipse cx="194.118" cy="146.154" rx="5.88235" ry="5.84615" fill="#E7E7E7"/>
<ellipse cx="5.88235" cy="29.2308" rx="5.88235" ry="5.84615" fill="#E7E7E7"/>
<ellipse cx="29.4118" cy="29.2308" rx="5.88235" ry="5.84615" fill="#E7E7E7"/>
<ellipse cx="52.9412" cy="29.2308" rx="5.88235" ry="5.84615" fill="#E7E7E7"/>
<ellipse cx="76.4706" cy="29.2308" rx="5.88235" ry="5.84615" fill="#E7E7E7"/>
<ellipse cx="100" cy="29.2308" rx="5.88235" ry="5.84615" fill="#E7E7E7"/>
<ellipse cx="123.529" cy="29.2308" rx="5.88235" ry="5.84615" fill="#E7E7E7"/>
<ellipse cx="147.059" cy="29.2308" rx="5.88235" ry="5.84615" fill="#E7E7E7"/>
<ellipse cx="170.588" cy="29.2308" rx="5.88235" ry="5.84615" fill="#E7E7E7"/>
<ellipse cx="194.118" cy="29.2308" rx="5.88235" ry="5.84615" fill="#E7E7E7"/>
<ellipse cx="5.88235" cy="52.6154" rx="5.88235" ry="5.84615" fill="#E7E7E7"/>
<ellipse cx="29.4118" cy="52.6154" rx="5.88235" ry="5.84615" fill="#E7E7E7"/>
<ellipse cx="52.9412" cy="52.6154" rx="5.88235" ry="5.84615" fill="#E7E7E7"/>
<ellipse cx="76.4706" cy="52.6154" rx="5.88235" ry="5.84615" fill="#E7E7E7"/>
<ellipse cx="100" cy="52.6154" rx="5.88235" ry="5.84615" fill="#E7E7E7"/>
<ellipse cx="123.529" cy="52.6154" rx="5.88235" ry="5.84615" fill="#E7E7E7"/>
<ellipse cx="147.059" cy="52.6154" rx="5.88235" ry="5.84615" fill="#E7E7E7"/>
<ellipse cx="170.588" cy="52.6154" rx="5.88235" ry="5.84615" fill="#E7E7E7"/>
<ellipse cx="194.118" cy="52.6154" rx="5.88235" ry="5.84615" fill="#E7E7E7"/>
<ellipse cx="5.88235" cy="76.0001" rx="5.88235" ry="5.84615" fill="#E7E7E7"/>
<ellipse cx="29.4118" cy="76.0001" rx="5.88235" ry="5.84615" fill="#E7E7E7"/>
<ellipse cx="52.9412" cy="76.0001" rx="5.88235" ry="5.84615" fill="#E7E7E7"/>
<ellipse cx="76.4706" cy="76.0001" rx="5.88235" ry="5.84615" fill="#E7E7E7"/>
<ellipse cx="100" cy="76.0001" rx="5.88235" ry="5.84615" fill="#E7E7E7"/>
<ellipse cx="123.529" cy="76.0001" rx="5.88235" ry="5.84615" fill="#E7E7E7"/>
<ellipse cx="147.059" cy="76.0001" rx="5.88235" ry="5.84615" fill="#E7E7E7"/>
<ellipse cx="170.588" cy="76.0001" rx="5.88235" ry="5.84615" fill="#E7E7E7"/>
<ellipse cx="194.118" cy="76.0001" rx="5.88235" ry="5.84615" fill="#E7E7E7"/>
<ellipse cx="5.88235" cy="99.3846" rx="5.88235" ry="5.84615" fill="#E7E7E7"/>
<ellipse cx="29.4118" cy="99.3846" rx="5.88235" ry="5.84615" fill="#E7E7E7"/>
<ellipse cx="52.9412" cy="99.3846" rx="5.88235" ry="5.84615" fill="#E7E7E7"/>
<ellipse cx="76.4706" cy="99.3846" rx="5.88235" ry="5.84615" fill="#E7E7E7"/>
<ellipse cx="100" cy="99.3846" rx="5.88235" ry="5.84615" fill="#E7E7E7"/>
<ellipse cx="123.529" cy="99.3846" rx="5.88235" ry="5.84615" fill="#E7E7E7"/>
<ellipse cx="147.059" cy="99.3846" rx="5.88235" ry="5.84615" fill="#E7E7E7"/>
<ellipse cx="170.588" cy="99.3846" rx="5.88235" ry="5.84615" fill="#E7E7E7"/>
<ellipse cx="194.118" cy="99.3846" rx="5.88235" ry="5.84615" fill="#E7E7E7"/>
</svg>
